<svg xmlns="http://www.w3.org/2000/svg" xml:space="preserve" width="519.26385" height="536.36652" viewBox="0 0 519.26385 536.36652"><defs><clipPath id="a" clipPathUnits="userSpaceOnUse"><path d="M0 792h612V0H0Z"/></clipPath></defs><g clip-path="url(#a)" transform="matrix(1.33333 0 0 -1.33333 -149.379 796.538)"><path d="m0 0-6.574 9.587q-3.57 5.197-8.74 5.952c-3.069.438-5.924-.322-8.566-2.289-2.94-2.183-4.68-4.818-5.202-7.9-.576-3.39.424-6.952 2.989-10.694l6.358-9.269.743.546c-.488.85-.761 1.507-.817 1.963-.095.781.226 1.447.971 1.996L-4.399.598c.773.578 1.503.663 2.21.283.39-.218.868-.693 1.444-1.43zm-7.785 5.479L-22.179-5.187c-.599-.449-1.055-.657-1.38-.657q-.723-.016-1.535 1.17c-1.638 2.389-1.602 4.97.098 7.753q1.587 2.574 4.688 4.873 5.215 3.861 8.232 3.498c2.015-.256 3.638-1.272 4.868-3.073.452-.651.612-1.182.491-1.586-.134-.392-.484-.826-1.068-1.312" style="fill:#14489e;fill-opacity:1;fill-rule:nonzero;stroke:none" transform="translate(175.23 282.204)"/><path d="m0 0-3.313 6.754-.809-.419c.354-.763.57-1.359.642-1.797q.148-1.13-.54-1.496-.573-.3-2.032-.521a660 660 0 0 1-2.958-.389l-3.633 7.43 1.525 1.887c.342.423.635.773.886 1.038.435.44.769.739 1.018.871q.84.436 1.298.037c.3-.269.737-.935 1.306-1.985l.817.422-5.261 10.735-.809-.43c.395-.748.408-1.46.059-2.171-.342-.703-1.278-1.967-2.766-3.806L-27.716-.112l.456-.947L-6.179.847c1.686.16 2.802.187 3.37.085C-1.918.805-1.254.34-.813-.432zm-10.545 1.993-8.81-.923-.131.284 5.8 7.053z" style="fill:#14489e;fill-opacity:1;fill-rule:nonzero;stroke:none" transform="translate(160.492 303.793)"/><path d="m0 0-.861-.299c-.365.987-.728 1.662-1.1 1.999-.556.526-1.321.628-2.285.279l-16.487-5.815c-.979-.347-1.529-.91-1.65-1.704-.076-.461.029-1.221.299-2.258l-.861-.299-6.624 20.298 6.829 2.412.291-.886c-2.039-1.228-3.298-2.515-3.75-3.86-.466-1.357-.234-3.444.686-6.261.35-1.073.686-1.724.992-1.926.311-.227.789-.221 1.431 0l7.857 2.777c-.635 2.023-1.423 3.251-2.371 3.712-.949.455-2.43.534-4.455.244l-.291.901 11.381 4.008.296-.889c-1.849-.932-3.038-1.927-3.576-2.976-.532-1.061-.473-2.575.176-4.584l8.244 2.907c.715.259 1.149.616 1.285 1.101.131.473.002 1.311-.383 2.503-.733 2.246-1.755 3.934-3.053 5.051-1.303 1.128-3.288 1.833-5.947 2.123l-.322.967 7.53 1.05z" style="fill:#14489e;fill-opacity:1;fill-rule:nonzero;stroke:none" transform="translate(149.125 327.269)"/><path d="M0 0c-2.896 1.976-4.669 4.873-5.322 8.66q-.394 2.285.032 4.698c.293 1.618.402 2.6.332 2.968-.064.402-.259.688-.565.874-.309.191-.758.315-1.339.365l-.17 1.017 8.237 1.538.159-.941c-1.626-1.212-2.881-2.37-3.757-3.48-1.598-2.081-2.215-4.195-1.838-6.375.409-2.352 1.696-3.896 3.858-4.617 2.167-.718 5.05-.735 8.632-.072 2.948.552 5.48 1.541 7.609 2.988 2.13 1.441 2.947 3.604 2.444 6.502-.266 1.559-.762 2.563-1.488 2.982-.412.245-.974.305-1.699.172l-3.722-.7q-1.607-.303-1.94-1.411c-.129-.488-.091-1.397.12-2.753l-.901-.16-2.16 12.497.897.175q.394-1.848 1.162-2.347c.509-.322 1.363-.374 2.575-.139l4.526.839c.632-.723 1.342-1.948 2.141-3.679.804-1.719 1.393-3.712 1.788-5.971.7-4.073.029-7.568-2.022-10.473-1.917-2.705-4.61-4.385-8.098-5.042C5.972-2.539 2.806-1.906 0 0" style="fill:#14489e;fill-opacity:1;fill-rule:nonzero;stroke:none" transform="translate(120.22 350.633)"/><path d="m0 0 .908.03q.127-2.168.708-2.883c.391-.479 1.273-.703 2.627-.669l12.03.298c1.825.045 3.236.308 4.218.775 1.83.853 2.721 2.436 2.662 4.734-.062 2.853-1.128 4.753-3.196 5.709q-1.702.797-4.735.719l-10.976-.27c-1.28-.03-2.156-.3-2.627-.802-.47-.508-.74-1.474-.817-2.919l-.907-.015-.19 8.201.912.022q.37-1.773.868-2.335c.328-.376 1.064-.54 2.21-.517l11.476.283c3.043.074 5.414-.627 7.106-2.111 1.697-1.485 2.576-3.859 2.649-7.129q.15-6.404-3.495-8.865c-1.285-.862-2.973-1.321-5.042-1.375L4.381-9.418c-1.339-.036-2.173-.238-2.513-.609-.336-.377-.558-1.221-.668-2.518l-.912-.024z" style="fill:#14489e;fill-opacity:1;fill-rule:nonzero;stroke:none" transform="translate(112.33 390.07)"/><path d="M0 0c.861 1.432 1.298 2.244 1.337 2.418.1.466-.003.875-.298 1.237-.296.349-.627.609-1 .762L.24 5.431 8.43 3.64l-.187-.931Q5.32 1.976 3.508.941C1.275-.347-.056-2.076-.493-4.232q-.74-3.668 1.994-5.87c1.825-1.466 4.437-2.571 7.852-3.311 2.513-.555 4.647-.701 6.391-.453 3.264.463 5.209 2.217 5.821 5.275q.568 2.807-.452 5.548c-.398 1.046-1.108 2.346-2.138 3.878l1.069.897c1.241-1.755 2.098-3.251 2.572-4.476.831-2.193 1.014-4.457.54-6.806q-1.093-5.399-4.91-8.376c-2.809-2.2-6.146-2.875-9.996-2.04-3.811.84-6.631 2.801-8.473 5.892-1.733 2.91-2.241 6.125-1.522 9.634C-1.446-2.922-.861-1.441 0 0" style="fill:#14489e;fill-opacity:1;fill-rule:nonzero;stroke:none" transform="translate(117.936 442.438)"/><path d="m0 0 2.545 7.109-.853.337c-.299-.795-.576-1.365-.846-1.715-.46-.588-.926-.781-1.419-.591-.398.147-.974.548-1.74 1.196q-.536.45-2.276 1.999l2.794 7.815 2.371.108c.529.023.971.031 1.335.023.606-.026 1.043-.099 1.31-.198.583-.226.886-.547.897-.963.023-.412-.153-1.196-.514-2.349l.85-.327 4.038 11.285-.85.329c-.258-.804-.762-1.306-1.499-1.518q-1.097-.306-4.564-.458l-20.42-.951-.354-.987 15.608-14.85q1.878-1.765 2.343-2.51c.499-.782.63-1.594.383-2.455zm-5.735 9.419-6.606 6.117.103.293 8.925.327z" style="fill:#14489e;fill-opacity:1;fill-rule:nonzero;stroke:none" transform="translate(142.866 445.005)"/><path d="m0 0 10.129 19.634 6.377-3.518-.485-.948c-2.44.963-4.428.941-5.987-.059-.864-.564-1.727-1.645-2.604-3.246l16.649-9.286c1.167-.65 2.043-.866 2.642-.665.594.213 1.239.971 1.918 2.29l.803-.448-6.041-11.698-.799.444q1.005 1.948.755 2.919-.242.962-1.974 1.926L4.727 6.632C3.954 5.024 3.563 3.667 3.57 2.577q.034-3.021 3.262-5.214l-.486-.944Z" style="fill:#14489e;fill-opacity:1;fill-rule:nonzero;stroke:none" transform="translate(130.036 480.532)"/><path d="M0 0c.537.817.833 1.467.89 1.925.099.789-.263 1.504-1.094 2.138l-13.949 10.828c-.803.624-1.519.798-2.16.524-.382-.175-.934-.663-1.649-1.483l-.737.568 7.267 10.113.736-.566q-.885-1.376-.985-2.087c-.116-.799.242-1.513 1.059-2.145l5.978-4.64 5.097 7.107-5.979 4.642c-.817.632-1.557.799-2.225.486-.412-.197-.967-.726-1.668-1.576l-.729.562 7.282 10.147.728-.565q-.841-1.388-.918-2.061-.14-1.13 1.064-2.072L11.969 21.02q1.253-.974 2.331-.432.63.298 1.518 1.46l.736-.57-7.281-10.147-.733.568q.879 1.308.967 2.08c.097.776-.255 1.484-1.072 2.115l-6.647 5.155-5.093-7.106 6.639-5.155q1.265-.98 2.364-.423c.416.227.938.736 1.554 1.547l.738-.57L.733-.563Z" style="fill:#14489e;fill-opacity:1;fill-rule:nonzero;stroke:none" transform="translate(161.491 490.375)"/><path d="M0 0q-4.048-4.092-4.048-9.414-.022-5.266 3.903-9.463 3.557-3.813 8.492-4.053 5.27-.23 9.39 3.932c2.589 2.616 3.932 5.662 4.031 9.146q.156 5.346-3.78 9.561-3.933 4.212-9.083 4.21C5.561 3.926 2.59 2.619 0 0m16.902-18.114q-2.914-2.946-7.314-.457c-1.58.894-3.343 2.378-5.291 4.462C2.395-12.059 1.03-10.21.208-8.55-1.327-5.41-1.124-2.86.825-.897 2.218.514 4.006.913 6.17.288c2.162-.622 4.578-2.359 7.232-5.202 1.938-2.074 3.321-3.95 4.138-5.624q2.255-4.666-.638-7.576" style="fill:#14489e;fill-opacity:1;fill-rule:nonzero;stroke:none" transform="translate(170.8 540.503)"/><path d="M0 0c.755.609 1.239 1.131 1.444 1.568q.516 1.114-.401 2.436L-9.105 18.692c-.602.868-1.278 1.254-2.018 1.153-.441-.048-1.098-.362-1.951-.924l-.537.77 10.116 7.555.532-.772c-1.156-.928-1.83-1.683-2.02-2.28-.183-.599.134-1.496.956-2.678L5.865 7.201q.7-1.008 1.424-.959c.488.032 1.221.419 2.195 1.149 1.755 1.306 2.955 2.809 3.59 4.501s.576 4.02-.161 6.99l.85.635 3.549-7.752L.532-.773z" style="fill:#14489e;fill-opacity:1;fill-rule:nonzero;stroke:none" transform="translate(197.76 532.865)"/><path d="M0 0c.871.532 1.437 1.013 1.714 1.437.445.701.409 1.524-.113 2.48l-8.562 15.767q-.764 1.422-1.931 1.382c-.465-.018-1.177-.281-2.133-.78l-.442.827L-.555 27.52l.452-.825q-1.44-.93-1.835-1.532c-.437-.679-.398-1.503.124-2.455L6.747 6.942c.49-.902 1.059-1.362 1.716-1.376q.984-.022 2.45.836l.446-.825L.444-.828Z" style="fill:#14489e;fill-opacity:1;fill-rule:nonzero;stroke:none" transform="translate(217.05 546.858)"/><path d="M0 0c1.623.087 2.517.164 2.67.233q.634.276.806.956c.112.456.128.887.037 1.291l.915.398 3.246-8.015-.845-.368C5.34-4.119 3.968-3.107 2.743-2.467c-2.295 1.175-4.421 1.336-6.377.475-2.207-.971-3.377-2.649-3.502-5.042q-.181-3.588 1.85-8.602c.995-2.462 2.09-4.369 3.279-5.711q3.337-3.798 7.492-1.978c1.69.74 3.069 1.919 4.122 3.541q.909 1.409 1.853 4.035l1.321-.397c-.678-2.065-1.378-3.648-2.086-4.749a11.3 11.3 0 0 0-5.067-4.34c-3.261-1.424-6.394-1.614-9.416-.568q-5.01 1.732-7.294 7.381c-1.511 3.732-1.573 7.263-.176 10.604 1.313 3.127 3.569 5.389 6.748 6.782C-3.138-.435-1.634-.084 0 0" style="fill:#14489e;fill-opacity:1;fill-rule:nonzero;stroke:none" transform="translate(236.369 583.286)"/><path d="m0 0 .149-.934c-1.359-.284-2.246-.665-2.644-1.13-.397-.475-.489-1.406-.266-2.799l1.974-12.341c.299-1.874.744-3.287 1.331-4.231 1.073-1.765 2.696-2.459 4.881-2.084 2.706.471 4.377 1.835 4.983 4.097q.527 1.86.026 4.973L8.635-3.188Q8.318-1.22 7.497-.597q-.815.622-2.889.437l-.147.931 7.785 1.346.147-.935C11.305.763 10.604.354 10.298-.036c-.314-.386-.372-1.175-.182-2.353l1.883-11.772c.496-3.123.157-5.665-1.018-7.617-1.179-1.951-3.317-3.188-6.417-3.72-4.05-.709-7.034.08-8.926 2.352q-1.517 1.809-2.025 4.994L-8.35-5.832c-.226 1.375-.535 2.206-.941 2.498-.408.296-1.241.409-2.488.336l-.149.936z" style="fill:#14489e;fill-opacity:1;fill-rule:nonzero;stroke:none" transform="translate(274.244 594.448)"/><path d="M0 0q1.96.088 2.512.831c.369.498.552 1.226.537 2.186l-.285 17.651Q1.133 22.55.744 22.883q-.38.334-1.036.412l-.016.949 7.53.123L19.793 8.98h.175l-.175 10.989c-.022 1.262-.248 2.152-.697 2.688-.455.528-1.332.836-2.654.923l-.011.952 7.695.128.015-.941c-1.119-.219-1.861-.493-2.241-.825-.371-.329-.546-1.061-.536-2.2l.359-22.015-.998-.018-16.093 19.71-.241-.005.226-14.616c.023-1.149.187-1.956.504-2.426C5.61.568 6.603.167 8.091.139l.013-.949-8.09-.138Z" style="fill:#14489e;fill-opacity:1;fill-rule:nonzero;stroke:none" transform="translate(291.226 572.744)"/><path d="M0 0q1.51-.113 2.201.157 1.122.47 1.276 2.1l1.679 18.021q.155 1.619-.819 2.277c-.393.262-1.116.481-2.172.634l.085.949 12.478-1.262-.096-.942c-1.122.066-1.906.007-2.341-.16-.729-.299-1.151-.992-1.248-2.087L9.36 1.663c-.096-1.025.12-1.745.652-2.145.524-.405 1.344-.668 2.461-.774l-.085-.944L-.087-.945Z" style="fill:#14489e;fill-opacity:1;fill-rule:nonzero;stroke:none" transform="translate(316.83 572.777)"/><path d="m0 0-.187-.927c-1.272.213-2.111.285-2.502.219-.411-.073-.67-.405-.79-.996a3 3 0 0 1-.064-.537 2 2 0 0 1 .055-.56l2.759-14.734-.019.003 7.139 11.33c.156.248.303.512.439.774q.355.654.446 1.08.205 1.038-.328 1.429-.533.385-2.328.917l.193.928 7.455-1.658-.194-.938c-.874.103-1.568-.018-2.08-.344-.507-.319-1.077-.969-1.695-1.94L-4.098-25.612l-.931.208-4.488 23.86c-.184.961-.434 1.675-.729 2.143q-.454.71-1.644 1.087l.19.925z" style="fill:#14489e;fill-opacity:1;fill-rule:nonzero;stroke:none" transform="translate(347.123 592.793)"/><path d="M0 0c.732.412 1.49.496 2.292.254.796-.247 1.402-.75 1.803-1.505.395-.759.47-1.558.235-2.389a2.98 2.98 0 0 0-1.447-1.876A2.84 2.84 0 0 0 .585-5.76c-.802.244-1.399.743-1.791 1.507-.404.75-.482 1.549-.241 2.385S-.735-.409 0 0" style="fill:#14489e;fill-opacity:1;fill-rule:nonzero;stroke:none" transform="translate(353.842 570.11)"/><path d="M0 0q1.838-.97 2.708-.609c.579.241 1.092.794 1.525 1.67l7.841 15.749c.444.893.528 1.586.259 2.097-.277.496-.923 1.075-1.93 1.73l.425.838 7.994-4.305-1.386-18.71.262-.123 13.835 11.994 7.997-4.302-.416-.842q-1.65.724-2.475.551c-.549-.12-1.134-.809-1.771-2.076l-7.312-14.69c-.604-1.203-.802-2.1-.604-2.681.205-.591.815-1.185 1.859-1.798l-.414-.839-10.537 5.665.417.843q1.441-.713 2.385-.653.942.062 1.694 1.568L30.408 7.27l-.232.124L12.695-7.901l-.875.47 1.647 23.281-.126.094L5.88.963c-.546-1.097-.754-2.014-.615-2.732.144-.719.872-1.47 2.204-2.248l-.419-.846-7.473 4.02z" style="fill:#14489e;fill-opacity:1;fill-rule:nonzero;stroke:none" transform="translate(370.397 561.038)"/><path d="m0 0 .549.756c.838-.607 1.495-.943 1.99-1.007.748-.106 1.432.262 2.038 1.112l10.444 14.49c.618.856.762 1.648.424 2.375-.187.429-.673.992-1.466 1.681l.549.755L31.029 7.314l-4.324-6.013-.735.574q1.546 3.306 1.007 5.384c-.359 1.387-1.68 2.97-3.972 4.757q-1.31 1.015-1.866 1.014c-.374-.01-.763-.292-1.17-.858l-4.976-6.905c1.616-1.283 2.944-1.838 3.972-1.663 1.021.182 2.298.984 3.802 2.411l.736-.566-7.207-10.002-.731.57c1.017 1.853 1.46 3.374 1.331 4.552q-.195 1.777-2.639 3.677L9.04-2.996q-.688-.944-.458-1.655c.139-.474.699-1.087 1.671-1.838q2.737-2.142 5.268-2.38 2.53-.247 6.055 1.745l.793-.617-5.645-5.289z" style="fill:#14489e;fill-opacity:1;fill-rule:nonzero;stroke:none" transform="translate(399.244 543.918)"/><path d="m0 0 8.003-8.321c2.895-3.013 6.089-4.462 9.568-4.359 3.091.098 5.787 1.336 8.079 3.724q3.846 3.992 3.875 8.689c.034 3.441-1.523 6.782-4.65 10.033l-7.747 8.054-.639-.671q.919-1.138 1.11-1.795.333-1.139-.633-2.141L4.427.175C3.761-.524 3.052-.74 2.298-.488Q1.665-.264.651.668Zm8.543-4.063 12.499 13c.52.537.933.836 1.249.886.48.088 1.052-.208 1.707-.892 1.99-2.069 2.376-4.623 1.134-7.654-.767-1.871-2.057-3.747-3.842-5.622-3.021-3.136-5.537-4.753-7.563-4.858-2.033-.103-3.79.624-5.287 2.18-.551.577-.798 1.066-.735 1.482.057.416.341.912.838 1.478" style="fill:#14489e;fill-opacity:1;fill-rule:nonzero;stroke:none" transform="translate(417.88 529.454)"/><path d="M0 0c.642-.813 1.185-1.321 1.628-1.54.742-.342 1.519-.174 2.346.509l13.63 11.26c.818.678 1.159 1.408 1.007 2.197-.087.484-.446 1.167-1.067 2.067l.703.588 7.807-10.196-.718-.591c-.735.879-1.312 1.43-1.733 1.638-.721.343-1.494.169-2.314-.51L7.653-5.844c-.781-.641-1.122-1.301-1.038-1.977.085-.674.484-1.473 1.177-2.377l-.706-.596L-.715-.591z" style="fill:#14489e;fill-opacity:1;fill-rule:nonzero;stroke:none" transform="translate(436.426 510.948)"/><path d="M0 0c.341-1.656.552-2.563.646-2.717q.36-.603 1.034-.671c.449-.044.865.008 1.226.167l.529-.874L-3.667-8.7l-.488.807c1.088 1.755 1.833 3.315 2.249 4.68.748 2.546.561 4.749-.555 6.62-1.269 2.12-3.052 3.046-5.341 2.806-2.288-.256-4.921-1.338-7.879-3.261-2.183-1.408-3.824-2.831-4.91-4.268-2.055-2.678-2.285-5.349-.699-7.993a9.4 9.4 0 0 1 4.017-3.684c.986-.471 2.358-.894 4.125-1.266l-.175-1.416q-3.1.565-4.837 1.39c-2.06.982-3.694 2.493-4.921 4.528-1.863 3.123-2.536 6.307-2.021 9.579.574 3.603 2.528 6.49 5.863 8.653 3.304 2.136 6.652 2.758 10.042 1.849 3.177-.865 5.677-2.812 7.514-5.863C-.898 3.138-.338 1.657 0 0" style="fill:#14489e;fill-opacity:1;fill-rule:nonzero;stroke:none" transform="translate(474.06 496.841)"/><path d="m0 0 2.892-6.964.837.377c-.313.783-.488 1.393-.536 1.837-.054.751.157 1.241.633 1.453q.584.256 2.054.385c.459.037 1.45.1 2.979.198l3.185-7.649-1.649-1.791a21 21 0 0 0-.942-.971q-.685-.624-1.073-.802-.86-.384-1.291.043c-.286.291-.681.977-1.188 2.072l-.836-.38 4.593-11.046.839.373q-.525 1.158.072 2.171c.386.674 1.387 1.879 2.989 3.621L27.664-1.696l-.4.974-21.152-.519c-1.691-.054-2.81-.006-3.371.125Q1.428-.825.829.375Zm10.395-2.673 8.85.338.117-.284-6.217-6.661z" style="fill:#14489e;fill-opacity:1;fill-rule:nonzero;stroke:none" transform="translate(457.767 477.067)"/><path d="M0 0q.424-1.423.907-1.96c.543-.597 1.324-.743 2.337-.463l16.781 4.724q1.5.417 1.752 1.562c.11.44.058 1.188-.147 2.221l.878.244 3.251-12.493-.881-.252c-.422 1.455-.875 2.378-1.345 2.765-.476.394-1.387.394-2.741.014L4.42-8.241c-.766-.219-1.224-.569-1.362-1.051-.139-.484-.049-1.334.258-2.538q.856-3.252 2.805-5.072 1.947-1.817 6.345-2.293l.277-1.059-8.229-.732L-.884-.249z" style="fill:#14489e;fill-opacity:1;fill-rule:nonzero;stroke:none" transform="translate(468.602 453.031)"/><path d="M0 0c-.474-1.624-.706-2.521-.7-2.703.03-.474.226-.839.597-1.109a2.7 2.7 0 0 1 1.159-.47l.053-1.03-8.352-.47-.049.948c1.755.992 3.134 1.989 4.132 2.981Q-.408.919-.576 4.22c-.136 2.488-1.255 4.199-3.387 5.13-2.126.93-4.927 1.295-8.413 1.094-2.558-.143-4.653-.565-6.272-1.277q-4.57-1.984-4.325-6.661c.103-1.904.706-3.647 1.819-5.235.636-.912 1.649-1.969 3.024-3.177l-.808-1.157q-2.464 2.05-3.594 3.645c-1.351 1.886-2.093 4.035-2.214 6.428-.192 3.67.694 6.807 2.666 9.407q3.258 4.32 9.141 4.644c3.895.226 7.113-.916 9.664-3.407C-.89 11.305.397 8.343.585 4.757A14.2 14.2 0 0 0 0 0" style="fill:#14489e;fill-opacity:1;fill-rule:nonzero;stroke:none" transform="translate(500.373 400.698)"/><path d="m0 0 .914-.085q-.081-1.593.223-2.292.47-1.089 1.99-1.227l17.34-1.565c1.037-.102 1.761.199 2.171.875.257.392.452 1.118.603 2.189l.905-.084-1.786-21.363-7.195.652.079.937c2.343.263 3.986.914 4.933 1.964.947 1.055 1.538 3.052 1.785 6.019q.146 1.69-.156 2.177c-.2.334-.637.525-1.312.585l-8.265.747c-.2-2.095.047-3.56.732-4.375q1.035-1.225 3.977-2.09l-.081-.947-11.968 1.08.078.948c2.056.086 3.528.494 4.424 1.232q1.344 1.12 1.607 4.265l-8.667.793c-.76.057-1.29-.094-1.604-.471-.301-.38-.506-1.194-.616-2.457-.192-2.353.082-4.319.842-5.903.757-1.567 2.298-3.051 4.623-4.426l-.085-1.032-7.297 2.203z" style="fill:#14489e;fill-opacity:1;fill-rule:nonzero;stroke:none" transform="translate(476.854 391.512)"/><path d="M0 0c-.263-1.33-.211-2.231.172-2.732.371-.5 1.01-.856 1.908-1.068l16.531-4.034c1.436.802 2.286 1.297 2.558 1.502q.397.31.64.946l.879-.222-1.712-7.624-17.427-8.917-.039-.175 10.289-2.506c1.179-.283 2.068-.274 2.675.052q.908.482 1.513 2.445l.887-.217-1.752-7.786-.887.22c.073 1.167.006 1.987-.222 2.445q-.328.69-1.921 1.08l-20.621 5.012.226 1.007L16.006-9.149l.06.241L2.37-5.572c-1.07.261-1.867.289-2.376.096-.826-.323-1.438-1.221-1.84-2.708l-.886.211L-.89.221z" style="fill:#14489e;fill-opacity:1;fill-rule:nonzero;stroke:none" transform="translate(475.742 367.067)"/><path d="m0 0-7.828-20.735-6.731 2.699.377.998c2.527-.64 4.511-.389 5.935.796.796.67 1.531 1.854 2.219 3.543l-17.586 7.186c-1.237.492-2.129.607-2.697.325-.573-.264-1.115-1.106-1.643-2.496l-.848.337 4.662 12.359.848-.332c-.516-1.381-.654-2.382-.416-2.989.227-.629.962-1.188 2.181-1.679l17.591-7.177q.879 2.538.685 4.167C-3.501-.995-4.773.591-7.08 1.778l.377 1.002z" style="fill:#14489e;fill-opacity:1;fill-rule:nonzero;stroke:none" transform="translate(491.396 332.13)"/><path d="m0 0 .793-.47C.322-1.411.091-2.135.091-2.659c0-.784.442-1.442 1.329-1.951l15.178-8.872c.901-.525 1.67-.573 2.318-.139q.58.376 1.411 1.737l.797-.468-10.103-18.69-6.295 3.68.446.829c2.24-.766 3.998-.884 5.27-.329 1.28.549 2.619 2.111 4.017 4.716.534.983.772 1.667.724 2.054-.054.389-.373.751-.971 1.095l-7.225 4.215c-1.019-1.822-1.382-3.26-1.071-4.294.299-1.043 1.228-2.243 2.796-3.61l-.449-.835-10.48 6.127.452.827c1.895-.811 3.409-1.061 4.518-.781 1.106.298 2.165 1.357 3.154 3.202l-7.587 4.43q-.993.59-1.634.269c-.434-.211-.944-.868-1.539-1.969q-1.68-3.098-1.583-5.748c.067-1.746.887-3.757 2.464-6.01l-.488-.905-5.778 5.124z" style="fill:#14489e;fill-opacity:1;fill-rule:nonzero;stroke:none" transform="translate(460.378 319.054)"/><path d="m0 0-7.297-9.872.73-.576c.79.995 1.48 1.522 2.081 1.577.596.072 1.392-.302 2.382-1.089l5.596-4.466-.602-.823-13.408 1.01-4.457-6.032.724-.578c.223.275.435.455.643.588.205.13.479.184.823.184L-.636-21q-.755-1.618-.678-3.667c.075-1.8.889-3.329 2.43-4.56 2.087-1.664 4.412-1.639 6.963.085 1.3.902 2.675 2.334 4.134 4.3l7.009 9.499-.724.573q-1.223-1.383-1.873-1.556c-.636-.151-1.505.209-2.59 1.074L1.424-5.187C.377-4.339-.168-3.618-.223-3.021c-.048.615.272 1.429.953 2.452zm4.403-15.155 7.238-5.784c.433-.35.663-.724.666-1.117.008-.403-.278-.988-.869-1.788-1.07-1.468-2.361-2.041-3.857-1.721-.874.193-1.863.723-2.964 1.604-1.791 1.436-2.633 2.774-2.512 3.998.127 1.237.887 2.838 2.298 4.808" style="fill:#14489e;fill-opacity:1;fill-rule:nonzero;stroke:none" transform="translate(448.94 297.854)"/><path d="M0 0c-.531 0-.89-.066-1.05-.218-.175-.138-.256-.37-.256-.699v-5.404c1.321.03 2.265.223 2.831.592.568.379.857 1.226.857 2.565 0 .82-.109 1.475-.325 1.948C1.686-.41.995 0 0 0" style="fill:#14489e;fill-opacity:1;fill-rule:nonzero;stroke:none" transform="translate(356.683 317.897)"/><path d="M0 0c-.532 0-.89-.066-1.059-.218-.159-.138-.254-.37-.254-.699v-5.404c1.328.03 2.269.223 2.837.592.57.379.854 1.226.854 2.565 0 .82-.106 1.475-.327 1.948C1.681-.41.995 0 0 0" style="fill:#14489e;fill-opacity:1;fill-rule:nonzero;stroke:none" transform="translate(258.307 317.897)"/><path d="m0 0-1.843-4.867h3.908L.121 0Z" style="fill:#14489e;fill-opacity:1;fill-rule:nonzero;stroke:none" transform="translate(239.009 314.139)"/><path d="m0 0-1.85-4.867h3.914L.116 0Z" style="fill:#14489e;fill-opacity:1;fill-rule:nonzero;stroke:none" transform="translate(197.525 314.139)"/><path d="M0 0c-.533 0-.893-.066-1.055-.218q-.254-.206-.254-.699v-5.404c1.322.03 2.262.223 2.835.592.574.379.851 1.226.851 2.565 0 .82-.108 1.475-.32 1.948C1.683-.41.995 0 0 0" style="fill:#14489e;fill-opacity:1;fill-rule:nonzero;stroke:none" transform="translate(394.774 317.897)"/><path d="M0 0v.53c.566.025.982.103 1.225.248.373.22.56.642.56 1.234V12.24q0 .92-.582 1.239c-.221.133-.63.211-1.203.248v.537h11.778v-4.249h-.515q-.393 2.056-1.336 2.828c-.627.507-1.773.763-3.426.763q-.952.002-1.209-.205-.258-.201-.259-.802V7.665c1.185-.012 1.993.199 2.409.646.422.431.742 1.243.959 2.406h.519V3.712h-.519c-.144 1.188-.446 2.036-.905 2.524-.458.483-1.278.73-2.463.73V1.815c0-.452.117-.753.34-.917.23-.159.689-.244 1.388-.244 1.32 0 2.394.263 3.232.782q1.252.787 2.22 2.93h.518L11.894 0Zm-.971 0h-4.14l-4.183 6.634h-.537V2.473c0-.745.121-1.254.356-1.511.245-.263.711-.407 1.426-.432V0h-6.902v.53c.687.031 1.161.169 1.408.405.25.235.38.748.38 1.538v9.315c0 .816-.148 1.354-.443 1.598-.206.166-.646.277-1.345.341v.537h6.553q2.038 0 3.301-.441c1.629-.594 2.443-1.671 2.443-3.215 0-1.136-.373-2.044-1.121-2.698-.579-.498-1.18-.806-1.822-.944L-1.81.953a.95.95 0 0 1 .363-.326A1.6 1.6 0 0 1-.971.53Zm-15.036 13.727c-.633-.028-1.07-.109-1.308-.223-.392-.211-.594-.628-.594-1.264V2.012c0-.589.156-.981.479-1.186.32-.199.79-.296 1.423-.296V0H-23.1v.53q.865.024 1.241.218.619.321.618 1.264V12.24c0 .621-.194 1.043-.592 1.248-.235.13-.663.211-1.267.239v.537h7.093zm-8.166 0c-.488-.054-.862-.211-1.115-.453-.248-.238-.486-.67-.718-1.281L-30.629-.416h-.518l-5.214 12.653c-.218.5-.435.874-.655 1.095q-.33.331-1.034.395v.537h6.803v-.537c-.73-.042-1.2-.109-1.414-.187-.215-.088-.318-.302-.318-.651q-.002-.154.019-.308a2 2 0 0 1 .097-.305l3.19-7.753 2.636 7.099c.054.156.114.319.162.482.076.275.112.495.112.646 0 .407-.109.651-.335.754-.226.108-.693.175-1.393.223v.537h4.318zM-39.063 0h-4.138l-4.182 6.634h-.537V2.473c0-.745.117-1.254.358-1.511q.348-.395 1.43-.432V0h-6.902v.53c.684.031 1.154.169 1.402.405q.38.353.38 1.538v9.315c0 .816-.151 1.354-.446 1.598q-.3.247-1.336.341v.537h6.544q2.037 0 3.302-.441c1.627-.594 2.448-1.671 2.448-3.215 0-1.136-.38-2.044-1.125-2.698-.582-.498-1.185-.806-1.824-.944l3.788-6.013a.93.93 0 0 1 .364-.326c.124-.054.283-.081.474-.097zm-15.905 0h-11.899v.53c.576.025.98.103 1.224.248.369.22.555.642.555 1.234V12.24c0 .613-.186 1.026-.575 1.239-.224.133-.625.211-1.204.248v.537h11.773v-4.249h-.507c-.259 1.372-.712 2.312-1.338 2.828-.627.507-1.774.763-3.426.763q-.95.002-1.209-.205-.25-.201-.25-.802V7.665c1.181-.012 1.983.199 2.399.646.417.431.742 1.243.962 2.406h.517V3.712h-.517c-.147 1.188-.449 2.036-.907 2.524-.452.483-1.273.73-2.454.73V1.815c0-.452.108-.753.334-.917.226-.159.69-.244 1.385-.244q1.982.002 3.232.782c.838.524 1.574 1.502 2.226 2.93h.512zm-14.679 1.116c-.802-.947-2.072-1.412-3.835-1.412a7.5 7.5 0 0 0-1.225.115c-.41.078-.823.193-1.225.35l-.385.144c-.091.028-.184.049-.269.073-.087.012-.156.024-.211.024-.208 0-.358-.069-.437-.186q-.118-.174-.2-.52h-.572v5.235h.572c.321-1.598.848-2.762 1.569-3.483Q-74.784.364-73.38.362c.91 0 1.55.256 1.939.736.377.491.57 1.006.57 1.555q.002.951-.604 1.538c-.258.26-.798.61-1.601 1.023l-1.299.684c-1.291.673-2.192 1.339-2.721 1.997-.533.657-.796 1.465-.796 2.442 0 1.025.347 1.984 1.05 2.874.702.895 1.773 1.342 3.221 1.342a6.6 6.6 0 0 0 2.135-.35c.693-.229 1.079-.349 1.175-.349.224 0 .38.057.458.186.091.133.155.302.212.513h.591V9.976h-.51q-.402 1.598-1.414 2.761-1.008 1.152-2.461 1.153c-.675 0-1.217-.191-1.604-.585a1.9 1.9 0 0 1-.591-1.414c0-.662.181-1.162.549-1.488.355-.34 1.164-.829 2.412-1.483l1.505-.778c.664-.362 1.197-.73 1.601-1.161.743-.793 1.113-1.746 1.113-2.882 0-1.062-.401-2.051-1.197-2.983m-23.865 75.259-5.107-99.52-5.04 98.187-14.972-34.894 13.756 41.622-53.138-50.559 47.991 54.515-38.667-15.404 34.115 17.33-95.479 5.305 94.205 5.243-33.57 15.564 40.038-14.303-48.633 55.251 52.434-49.889-14.811 40.193 16.533-35.172 5.238 139.363 5.188-137.978 14.816 34.546-13.751-41.626 53.139 50.563-47.983-54.513 38.653 15.397-34.123-17.335 93.71-5.304-92.444-5.229 33.594-15.576-40.037 14.31 48.63-55.251L-91.66 81.1l14.812-40.198ZM-121.02 0h-11.896v.53c.576.025.977.103 1.218.248.373.22.563.642.563 1.234V12.24q0 .92-.578 1.239c-.226.133-.627.211-1.203.248v.537h11.779v-4.249h-.522q-.393 2.056-1.327 2.828-.95.762-3.436.763-.943.002-1.205-.205-.255-.201-.254-.802V7.665c1.185-.012 1.984.199 2.407.646.423.431.744 1.243.967 2.406h.514V3.712h-.514c-.149 1.188-.452 2.036-.91 2.524-.459.483-1.279.73-2.464.73V1.815c0-.452.108-.753.342-.917.226-.159.685-.244 1.387-.244 1.313 0 2.393.263 3.228.782.828.524 1.572 1.502 2.221 2.93h.511zm-16.419 0h-4.13l-4.192 6.634h-.543V2.473c0-.745.124-1.254.361-1.511q.356-.395 1.426-.432V0h-6.893v.53c.686.031 1.152.169 1.404.405q.376.353.375 1.538v9.315c0 .816-.149 1.354-.445 1.598-.196.166-.645.277-1.334.341v.537h6.543q2.036 0 3.305-.441c1.627-.594 2.444-1.671 2.444-3.215 0-1.136-.372-2.044-1.126-2.698-.573-.498-1.179-.806-1.824-.944l3.79-6.013a.9.9 0 0 1 .364-.326c.125-.054.285-.081.475-.097zm-18.594 0h-6.585v.53c.673.025 1.103.088 1.318.179.208.093.314.316.314.685q0 .247-.164.756c-.059.196-.15.437-.263.73l-.511 1.284h-4.526c-.293-.859-.478-1.414-.563-1.673q-.268-.807-.267-1.179c0-.298.191-.528.571-.658.221-.072.557-.117 1.006-.124V0h-4.129v.53c.481.031.879.272 1.167.695.197.271.475.862.832 1.785l4.479 11.543h.577l4.538-11.079c.504-1.254.882-2.051 1.131-2.418.262-.366.612-.537 1.075-.526zm-18.469 13.727q-1.028-.082-1.405-.395c-.25-.208-.375-.728-.375-1.544V2.473c0-.785.125-1.291.375-1.538q.377-.367 1.405-.405V0h-6.733v.53c.598.025 1.061.124 1.357.308q.462.298.46 1.258v10.31h-.147L-184.584 0h-.552l-5.059 12.213-.087-.055V2.587c0-.688.124-1.203.371-1.525.248-.314.799-.501 1.649-.532V0h-4.716v.53c.776.007 1.277.158 1.514.432.234.274.35.699.35 1.258v10.02c0 .576-.135.956-.394 1.137-.262.175-.722.296-1.393.35v.537h5.091l4.028-9.816.167.015 3.999 9.801h5.114zM-197.517 0h-6.576v.53c.655.025 1.102.088 1.305.179.211.093.311.316.311.685q0 .247-.154.756c-.061.196-.157.437-.266.73l-.518 1.284h-4.523c-.292-.859-.482-1.414-.562-1.673q-.273-.807-.271-1.179c0-.298.19-.528.577-.658.223-.072.554-.117.999-.124V0h-4.122v.53c.483.031.876.272 1.174.695.19.271.46.862.812 1.785l4.485 11.543h.578l4.537-11.079c.511-1.254.891-2.051 1.146-2.418.249-.366.609-.537 1.068-.526zm98.533 257.115S-221.734 154.45-234.276 1.688c0 0 135.148-65.654 269.908 0C23.09 154.45-98.984 257.115-98.984 257.115" style="fill:#14489e;fill-opacity:1;fill-rule:nonzero;stroke:none" transform="translate(403.297 304.29)"/><path d="M0 0c2.823 0 5.117 2.385 5.117 5.328 0 2.931-2.294 5.317-5.117 5.317-2.832 0-5.126-2.386-5.126-5.317C-5.126 2.385-2.832 0 0 0" style="fill:#14489e;fill-opacity:1;fill-rule:nonzero;stroke:none" transform="translate(303.482 208.4)"/><path d="M0 0s-3.254 24.576-31.674 21.639c0 0 4.228-25.267 31.674-21.639" style="fill:#14489e;fill-opacity:1;fill-rule:nonzero;stroke:none" transform="translate(209.906 239.65)"/><path d="M0 0s-16.109-.431-27.039-18.684c0 0 31.519-6.019 43.382 16.763 0 0-5.528 22.976-35.656 29.761 0 0 4.04-20.002 19.313-27.84" style="fill:#14489e;fill-opacity:1;fill-rule:nonzero;stroke:none" transform="translate(278.45 214.981)"/><path d="M0 0s-15.949 2.451-29.73-13.567c0 0 30.054-11.574 45.515 8.739 0 0-1.645 23.624-30.195 35.71 0 0 .658-20.427 14.41-30.882" style="fill:#14489e;fill-opacity:1;fill-rule:nonzero;stroke:none" transform="translate(248.574 222.204)"/><path d="M0 0s-15.299 5.277-31.532-8.033c0 0 27.68-16.784 46.277.47 0 0 2.295 23.551-23.825 40.568 0 0-2.736-20.243 9.08-33.005" style="fill:#14489e;fill-opacity:1;fill-rule:nonzero;stroke:none" transform="translate(220.34 234.655)"/><path d="M0 0s3.293 24.595 31.715 21.591C31.715 21.591 27.45-3.654 0 0" style="fill:#14489e;fill-opacity:1;fill-rule:nonzero;stroke:none" transform="translate(396.168 239.528)"/><path d="M0 0s16.121-.601 26.862-18.959c0 0-31.572-5.687-43.218 17.219 0 0 5.753 22.903 35.939 29.374 0 0-4.228-19.947-19.583-27.634" style="fill:#14489e;fill-opacity:1;fill-rule:nonzero;stroke:none" transform="translate(328.554 214.714)"/><path d="M0 0s15.964 2.328 29.621-13.823c0 0-30.145-11.315-45.437 9.149 0 0 1.83 23.6 30.477 35.426 0 0-.826-20.415-14.661-30.752" style="fill:#14489e;fill-opacity:1;fill-rule:nonzero;stroke:none" transform="translate(358.74 222.026)"/><path d="M0 0s15.343 5.168 31.481-8.27c0 0-27.796-16.573-46.276.815 0 0-2.129 23.569 24.101 40.402 0 0 2.592-20.273-9.306-32.947" style="fill:#14489e;fill-opacity:1;fill-rule:nonzero;stroke:none" transform="translate(387.236 234.674)"/></g></svg>