<svg xmlns="http://www.w3.org/2000/svg" xml:space="preserve" width="660.2608" height="146.75354" viewBox="0 0 660.2608 146.75354"><defs><clipPath id="a" clipPathUnits="userSpaceOnUse"><path d="M0 193h595.275V0H0Z"/></clipPath></defs><g clip-path="url(#a)" transform="matrix(1.33333 0 0 -1.33333 -60.09 203.406)"><path d="M0 0c0 2.491 1.42 4.516 3.174 4.516 1.76 0 3.193-2.025 3.193-4.516 0-2.569-1.433-4.545-3.193-4.545C1.42-4.545 0-2.569 0 0m12.365 0c0 4.231-4.1 7.699-9.191 7.699-5.07 0-9.206-3.468-9.206-7.699 0-4.286 4.136-7.73 9.206-7.73 5.091 0 9.191 3.444 9.191 7.73" style="fill:#1c63b7;fill-opacity:1;fill-rule:nonzero;stroke:none" transform="translate(516.605 117.529)"/><path d="M0 0v-.774C1.508-.952 2.184-2.147 2.184-3.19v-13.148c-1.147-.971-2.559-1.51-4.265-1.603-1.932-.144-4.204-.19-6.702-.19h-15.49l1.972-3.221h6.838v-5.48h5.779v5.48H-7.8c2.408 0 4.49.155 6.224.433 1.473.29 2.722.852 3.76 1.686v-4.425H-4.04v-3.174h6.224v-3.775h5.65V0h-5.65z" style="fill:#1c63b7;fill-opacity:1;fill-rule:nonzero;stroke:none" transform="translate(531.98 126.115)"/><path d="M0 0c-.293.314-.423.764-.423 1.373v6.29h-7.956v-.769c1.542-.159 2.217-1.391 2.217-2.402V.752c0-1.621.396-2.75 1.161-3.43.73-.652 1.692-.983 2.838-.983h19.237v3.2H1.208C.696-.461.294-.317 0 0" style="fill:#1c63b7;fill-opacity:1;fill-rule:nonzero;stroke:none" transform="translate(522.719 89.335)"/><path d="M491.649 115.942h5.726v-3.977h-5.726zm-5.752-8.279c-.123-.142-.335-.259-.607-.295h-5.568c-.308.036-.512.153-.594.295-.13.19-.178.409-.178.669v5.575h7.07v-5.575c0-.26-.062-.479-.123-.669m9.267 18.452v-.774a2.443 2.443 0 0 0 2.211-2.416v-3.793h-5.726v5.456h-5.629v-7.457h-7.07v7.457h-7.827v-.798c1.44-.166 2.19-.899 2.19-1.925v-13.119c0-1.284.274-2.344.799-3.26.533-.889 1.849-1.326 3.931-1.326h8.912c2.095 0 3.378.437 3.937 1.326.505.916.757 1.976.757 3.26h5.726v-7.272h5.637v24.641h-5.637z" style="fill:#1c63b7;fill-opacity:1;fill-rule:nonzero;stroke:none"/><path d="M0 0c-2.45 0-4.504 2.584-4.504 5.681 0 3.124 2.054 5.633 4.504 5.633 2.47 0 4.503-2.509 4.503-5.633C4.503 2.584 2.47 0 0 0m0 14.575c-5.89 0-10.652-3.989-10.652-8.894C-10.652.764-5.89-3.207 0-3.207S10.673.764 10.673 5.681c0 4.905-4.784 8.894-10.673 8.894" style="fill:#1c63b7;fill-opacity:1;fill-rule:nonzero;stroke:none" transform="translate(490.845 87.194)"/><path d="M0 0v-.319h-2.696v15.298h-7.302v-.774a2.44 2.44 0 0 0 2.178-2.416V-8.893c-.519-.314-1.195-.575-1.938-.77-.785-.165-1.713-.337-2.778-.574l-5.288-.615c-.458-.042-.806 0-1.072.106-.246.048-.382.468-.498 1.278V9.18h8.209v3.207h-16.064v-.793c1.516-.196 2.211-1.366 2.211-2.414v-20.187c0-2.302.724-3.597 2.164-3.757 1.488-.143 2.887-.1 4.21.13l6.258 1.325c.812.238 1.685.521 2.484.883a7.6 7.6 0 0 1 2.102 1.278v-15.716h5.124v23.333H0v-23.333h5.234v41.843H0Z" style="fill:#1c63b7;fill-opacity:1;fill-rule:nonzero;stroke:none" transform="translate(195.264 111.136)"/><path d="M0 0v-.319h-2.695v15.298H-9.99v-.774c1.48-.178 2.183-1.374 2.183-2.416V-8.893c-.511-.314-1.194-.575-1.93-.77-.792-.165-1.727-.337-2.798-.574l-5.255-.615c-.471-.042-.854 0-1.099.106-.253.048-.409.468-.511 1.278V9.18h8.202v3.207h-16.036v-.793c1.466-.196 2.211-1.366 2.211-2.414v-20.187c0-2.302.751-3.597 2.149-3.757 1.487-.143 2.887-.1 4.23.13l6.245 1.325c.833.238 1.671.521 2.491.883q1.218.514 2.101 1.278v-15.716h5.112v23.333H0v-23.333h5.248v41.843H0Z" style="fill:#1c63b7;fill-opacity:1;fill-rule:nonzero;stroke:none" transform="translate(383.162 111.136)"/><path d="M0 0v3.161h-7.882c.833 1.467 1.604 3.888 2.293 6.231.716 2.384 1.365 6.847 1.665 10.096.062.515-.055 1.054-.198 1.503-.19.474-.593.716-1.147.776h-28.237l1.972-3.207h21.489c.055-2.404-.061-6.539-.252-9.061-.205-2.462-.431-4.955-.635-6.338h-26.245L-35.232 0h13.409v-17.485h5.609V0Z" style="fill:#1c63b7;fill-opacity:1;fill-rule:nonzero;stroke:none" transform="translate(241.476 101.757)"/><path d="M0 0h-7.875v-.774c1.508-.178 2.252-1.403 2.252-2.404v-38.665H0v23.096h5.603v3.201H0Z" style="fill:#1c63b7;fill-opacity:1;fill-rule:nonzero;stroke:none" transform="translate(272.225 126.115)"/><path d="M0 0h-17.722l2.129-3.207h10.605c-1.543-11.606-10.373-22.69-14.515-25.708l1.351-1.55c3.917 2.101 8.025 5.426 11.956 10.705C-1.406-13.351.655-7.752 1.413-2.409a2.8 2.8 0 0 1 0 1.533C1.242-.343.792-.06 0 0" style="fill:#1c63b7;fill-opacity:1;fill-rule:nonzero;stroke:none" transform="translate(260.617 123.523)"/><path d="M0 0h11.273v3.196H-8.598c-.792 0-1.338.089-1.652.313-.279.219-.436.521-.436 1.527v1.367h21.448v3.058h-21.448v3.097h21.959v3.224h-29.807v-.798a2.41 2.41 0 0 0 2.245-2.385V4.255c-.041-1.604.416-2.728 1.372-3.351C-13.975.319-13.252 0-12.235 0h6.646v-3.291h-16.05l1.925-3.189h36.092v3.189H0Z" style="fill:#1c63b7;fill-opacity:1;fill-rule:nonzero;stroke:none" transform="translate(301.151 108.806)"/><path d="M0 0c-.103.159-.137.367-.137.65v2.117h19.094c.464 0 .859.244 1.194.64.334.407.505.87.505 1.45v5.793c0 .338-.027.557-.171.71-.142.154-.334.23-.669.23H-7.827l1.883-3.218h21.005V5.874H-8.004v-.78c1.473-.156 2.231-.925 2.231-1.924V1.069c0-1.254.252-2.347.798-3.259.512-.876 1.829-1.308 3.945-1.308h22.102v3.196H.614C.334-.273.157-.185 0 0" style="fill:#1c63b7;fill-opacity:1;fill-rule:nonzero;stroke:none" transform="translate(291.284 88.16)"/><path d="M0 0c2.396 0 4.497.142 6.23.437 1.748.301 3.119 1.03 4.286 2.13v-5.52h5.595v25.842H8.312v-.786a2.43 2.43 0 0 0 2.204-2.416V5.437C9.232 4.212 7.677 3.526 5.739 3.409c-1.959-.161-4.197-.226-6.776-.226h-5.391c-.511 0-.922.159-1.208.461-.287.302-.41.752-.41 1.368v3.716H2.442c.458 0 .895.184 1.263.616.349.402.519.851.519 1.402v8.55c0 .362-.04.611-.17.746-.13.131-.349.244-.676.244h-18.459l1.973-3.207h11.587v-5.552h-14.474v-.781c1.446-.206 2.231-1.385 2.231-2.373V4.396c0-1.615.334-2.771 1.113-3.408C-11.901.3-10.959 0-9.792 0Z" style="fill:#1c63b7;fill-opacity:1;fill-rule:nonzero;stroke:none" transform="translate(334.705 103.238)"/><path d="M0 0h-26.108l1.959-3.238h19.325v-10.579H.778v12.87c0 .343-.061.58-.198.746A.85.85 0 0 1 0 0" style="fill:#1c63b7;fill-opacity:1;fill-rule:nonzero;stroke:none" transform="translate(350.12 98.089)"/><path d="M0 0v3.166h-5.589v9.339h-7.882v-.786c1.502-.178 2.253-1.374 2.253-2.416v-21.659h5.629V0Z" style="fill:#1c63b7;fill-opacity:1;fill-rule:nonzero;stroke:none" transform="translate(432.028 113.622)"/><path d="M0 0h-26.062l1.953-3.188h19.285v-11.509H.791v13.75c0 .338-.062.623-.204.769C.478-.118.286 0 0 0" style="fill:#1c63b7;fill-opacity:1;fill-rule:nonzero;stroke:none" transform="translate(425.635 98.97)"/><path d="M0 0c0 3.26 1.583 5.864 3.515 5.864C5.486 5.864 7.069 3.26 7.069 0c0-3.19-1.583-5.824-3.554-5.824C1.583-5.824 0-3.19 0 0m13.218 0c0 2.378-.996 4.544-2.552 6.185h5.418v3.171H6.428v4.935h-7.826v-.786a2.443 2.443 0 0 0 2.197-2.409v-1.74h-10.83l1.945-3.171h4.49C-5.118 4.544-6.142 2.378-6.142 0c0-5.007 4.327-9.084 9.657-9.084 5.39 0 9.703 4.077 9.703 9.084" style="fill:#1c63b7;fill-opacity:1;fill-rule:nonzero;stroke:none" transform="translate(402.085 112.227)"/><path d="M0 0h2.941c3.814.034 7.111.46 7.111 6.686-.028 5.599-2.791 6.623-6.483 6.575h-5.493v-.415c1.821-.3 1.883-.3 1.883-2.242zm2.143 11.285c0 .947.457 1.053 1.603 1.053 3.712 0 4.108-2.196 4.108-5.664 0-3.989-.73-5.722-4.34-5.734-1.358 0-1.358.556-1.358 1.309z" style="fill:#1c63b7;fill-opacity:1;fill-rule:nonzero;stroke:none" transform="translate(172.09 60.074)"/><path d="M0 0h1.229l1.466 4.111h5.009L9.199.034h2.04L6.415 13.261h-3.72v-.415c.799-.135 1.509-.135 1.522-.957 0-.1-.204-.793-.334-1.126zm5.118 10.782L7.35 5.036H3.03Z" style="fill:#1c63b7;fill-opacity:1;fill-rule:nonzero;stroke:none" transform="translate(183.417 60.074)"/><path d="M0 0h1.229l1.46 4.111h4.996L9.179.034h2.041L6.415 13.261H2.689v-.415c.798-.135 1.501-.135 1.529-.957 0-.1-.219-.793-.348-1.126zm5.098 10.782 2.258-5.746H3.03Z" style="fill:#1c63b7;fill-opacity:1;fill-rule:nonzero;stroke:none" transform="translate(443.001 60.074)"/><path d="M0 0c0 1.941-.034 1.941-1.849 2.242v.414l9.41-.036.041-2.905h-.553c.034 1.57-.798 1.977-2.088 1.977H3.419c-1.003.029-1.208-.052-1.276-.987v-3.889l2.422-.047c1.338 0 1.481.858 1.577 1.526l.607-.023-.062-4.13h-.545c0 1.082-.416 1.692-1.624 1.733H2.143v-4.379c-.014-1.1.205-1.161 1.228-1.184h2.184c1.105 0 1.651.409 1.795 1.929h.504l-.02-2.845-7.868.034z" style="fill:#1c63b7;fill-opacity:1;fill-rule:nonzero;stroke:none" transform="translate(197.304 70.679)"/><path d="M0 0c-.785-.3-2.682-.815-4.415-.815-4.244 0-5.67 2.728-5.629 7.076 0 3.866 1.221 6.635 5.534 6.587 2.927 0 4.182-1.371 4.414-2.893h-2.408c-.048.692-.587 1.958-2.272 1.958-2.791.012-3.078-3.277-3.106-5.846 0-3.26.826-5.959 3.869-5.959.772 0 1.297.16 1.864.302v4.024c0 1.763-.239 1.722-1.938 2.071v.444H0Z" style="fill:#1c63b7;fill-opacity:1;fill-rule:nonzero;stroke:none" transform="translate(218.206 60.487)"/><path d="M0 0c0-2.634-.232-5.314-4.674-5.314-3.473 0-4.716 1.651-4.716 4.55v6.315c0 1.662-.075 1.693-2.006 1.923v.461l4.176.462V.237c0-2.226 0-4.628 2.764-4.628 3.057 0 3.057 2.183 3.057 4.195v8.332H0Z" style="fill:#1c63b7;fill-opacity:1;fill-rule:nonzero;stroke:none" transform="translate(231.315 64.986)"/><path d="M0 0c0-2.634-.231-5.314-4.687-5.314-3.454 0-4.682 1.651-4.703 4.55v6.315c0 1.662-.082 1.693-2.019 1.923v.461l4.176.462V.237c0-2.226 0-4.628 2.845-4.628 2.955 0 2.955 2.183 2.955 4.195v8.332H0Z" style="fill:#1c63b7;fill-opacity:1;fill-rule:nonzero;stroke:none" transform="translate(345.084 64.986)"/><path d="M0 0c-.499-.218-2.095-.751-4.026-.751-4.06-.023-5.603 2.539-5.637 6.971 0 3.61 1.071 6.693 5.439 6.693 3.111 0 4.312-1.29 4.531-2.882h-2.375c-.122.633-.491 1.959-2.293 1.959-2.709 0-3.145-3.237-3.118-5.273 0-2.189.232-6.545 4.026-6.545C-1.699.172-.499.901 0 1.237z" style="fill:#1c63b7;fill-opacity:1;fill-rule:nonzero;stroke:none" transform="translate(247.652 60.422)"/><path d="M0 0h1.208l1.494 4.077h5.029L9.171 0h2.061l-4.79 13.227H2.723v-.396c.784-.137 1.528-.154 1.528-.942 0-.135-.177-.863-.348-1.16zm5.125 10.748 2.231-5.746h-4.36z" style="fill:#1c63b7;fill-opacity:1;fill-rule:nonzero;stroke:none" transform="translate(249.835 60.108)"/><path d="M0 0h-1.371c-1.542 0-2.006-.449-2.095-1.894h-.58l.061 2.865H6.128l.061-2.941H5.63C5.63-.449 4.996 0 3.474 0H2.15v-12.304H0Z" style="fill:#1c63b7;fill-opacity:1;fill-rule:nonzero;stroke:none" transform="translate(264.561 72.412)"/><path d="M0 0h-1.351c-1.57 0-2.006-.449-2.102-1.894h-.587l.089 2.865H6.148l.076-2.941H5.65C5.65-.449 5.029 0 3.48 0H2.197v-12.304H0Z" style="fill:#1c63b7;fill-opacity:1;fill-rule:nonzero;stroke:none" transform="translate(510.73 72.412)"/><path d="M0 0c0 1.549-.109 1.75-1.999 1.923v.45l4.149.425.02-6.108 5.364.043-.061 5.875H9.67l.048-13.231H7.541l-.007 6.421H2.17l.041-6.445H.028Z" style="fill:#1c63b7;fill-opacity:1;fill-rule:nonzero;stroke:none" transform="translate(273.514 70.537)"/><path d="M0 0c4.074 0 5.323 2.651 5.302 6.789-.027 4.254-1.276 6.922-5.37 6.875-4.258 0-5.439-2.657-5.398-6.888C-5.466 2.539-4.197-.023 0 0m-3.317 6.776c0 2.675.212 5.965 3.249 6.013 3.009 0 3.207-3.404 3.207-6C3.139 4.296 3.043.923 0 .923c-2.996 0-3.317 3.445-3.317 5.853" style="fill:#1c63b7;fill-opacity:1;fill-rule:nonzero;stroke:none" transform="translate(292.424 59.671)"/><path d="M0 0c0 1.662-.055 1.692-1.993 1.923v.46l4.136.463-.028-11.084c0-1.51 0-1.51 1.352-1.51h1.664c1.256 0 2.341.083 2.341 1.93h.559l-.048-2.846-8.01.017z" style="fill:#1c63b7;fill-opacity:1;fill-rule:nonzero;stroke:none" transform="translate(301.432 70.537)"/><path d="M0 0c0 1.662-.048 1.692-1.966 1.923v.46l4.15.463V-8.238c-.055-1.51-.055-1.51 1.268-1.51H5.18c1.241 0 2.305.083 2.305 1.93h.539l-.075-2.846-7.97.017z" style="fill:#1c63b7;fill-opacity:1;fill-rule:nonzero;stroke:none" transform="translate(457.933 70.537)"/><path d="M0 0c.034 1.662-.033 1.662-1.958 1.923v.46l4.142.415.007-13.445H.034Z" style="fill:#1c63b7;fill-opacity:1;fill-rule:nonzero;stroke:none" transform="translate(312.69 70.537)"/><path d="M0 0c0 1.662-.082 1.662-1.958 1.923v.46l4.121.415.041-13.445H.021Z" style="fill:#1c63b7;fill-opacity:1;fill-rule:nonzero;stroke:none" transform="translate(361.387 70.537)"/><path d="M0 0c-.499-.213-2.137-.746-4.026-.746C-8.073-.769-9.67 1.841-9.67 6.267c0 3.652 1.106 6.651 5.493 6.651 3.058 0 4.265-1.337 4.477-2.881h-2.327c-.123.632-.553 1.958-2.341 1.958-2.675 0-3.098-3.236-3.098-5.273 0-2.189.266-6.544 4.013-6.544 1.76 0 2.94.68 3.453 1.064z" style="fill:#1c63b7;fill-opacity:1;fill-rule:nonzero;stroke:none" transform="translate(327.2 60.417)"/><path d="M0 0c-.491-.213-2.082-.746-4.013-.746-4.012-.023-5.63 2.587-5.63 7.013 0 3.652 1.113 6.651 5.541 6.651 3.037 0 4.245-1.337 4.429-2.881h-2.348c-.101.632-.525 1.958-2.32 1.958-2.675 0-3.111-3.236-3.111-5.273 0-2.189.225-6.544 4.013-6.544C-1.72.178-.519.858 0 1.242z" style="fill:#1c63b7;fill-opacity:1;fill-rule:nonzero;stroke:none" transform="translate(441.821 60.417)"/><path d="M0 0c-.464-.213-2.088-.746-4.026-.746-4.013-.023-5.596 2.587-5.596 7.013 0 3.652 1.085 6.651 5.493 6.651 3.044 0 4.273-1.337 4.442-2.881H-2.04c-.075.632-.492 1.958-2.279 1.958-2.689 0-3.14-3.236-3.14-5.273 0-2.189.246-6.544 4.047-6.544C-1.686.178-.484.858 0 1.242z" style="fill:#1c63b7;fill-opacity:1;fill-rule:nonzero;stroke:none" transform="translate(481.837 60.417)"/><path d="M0 0c0 1.817-.307 1.723-1.999 2.083v.415h4.156L8.395-8.184h.033L8.395 2.498h1.248l.041-13.227h-1.89L1.242.445h-.02l.02-11.174H0Z" style="fill:#1c63b7;fill-opacity:1;fill-rule:nonzero;stroke:none" transform="translate(348.36 70.837)"/><path d="M0 0c0 1.817-.3 1.723-1.951 2.083v.415h4.135l6.21-10.682h.068L8.428 2.498h1.249v-13.227H7.786L1.331.445h-.082l.034-11.174H0Z" style="fill:#1c63b7;fill-opacity:1;fill-rule:nonzero;stroke:none" transform="translate(495.6 70.837)"/><path d="M0 0a1.405 1.405 0 0 0 1.672 1.083C2.443.935 2.928.16 2.812-.592c-.165-.734-.943-1.201-1.7-1.035C.354-1.467-.171-.753 0 0" style="fill:#1c63b7;fill-opacity:1;fill-rule:nonzero;stroke:none" transform="translate(375.444 61.24)"/><path d="M0 0c0 1.817-.272 1.771-1.924 2.083v.415h4.456L6.429-8.356h.061l3.781 10.854h2.681v-13.227h-1.965V.99h-.034L6.804-10.729H5.412L1.283.877h-.075v-11.606H0Z" style="fill:#1c63b7;fill-opacity:1;fill-rule:nonzero;stroke:none" transform="translate(385.086 70.837)"/><path d="M0 0c0 1.941-.021 1.941-1.835 2.242v.414h9.41l.061-2.893h-.553c0 1.604-.812 2.018-2.108 1.97H3.433c-.99 0-1.236-.052-1.236-.994v-3.923h2.375c1.344 0 1.474.835 1.604 1.509h.553v-4.137h-.553c0 1.059-.43 1.723-1.604 1.723l-2.375-.036v-4.379c0-1.1.246-1.149 1.236-1.149h2.17c1.126 0 1.671.403 1.794 1.93h.512l-.068-2.847H.048Z" style="fill:#1c63b7;fill-opacity:1;fill-rule:nonzero;stroke:none" transform="translate(402.535 70.679)"/><path d="M0 0c0 1.941-.062 1.941-1.855 2.242v.414h9.376l.061-2.893H7.07c0 1.604-.826 2.018-2.149 1.97H3.392c-.983 0-1.242-.052-1.242-.994v-3.923h2.409c1.344 0 1.481.869 1.603 1.509h.561v-4.137h-.561c0 1.059-.443 1.723-1.603 1.723L2.15-4.125v-4.379c.034-1.1.259-1.149 1.242-1.149h2.183c1.148 0 1.672.403 1.788 1.93h.539l-.054-2.847H0Z" style="fill:#1c63b7;fill-opacity:1;fill-rule:nonzero;stroke:none" transform="translate(484.839 70.679)"/><path d="M0 0c0 1.941-.082 1.941-1.884 2.242l-.02.414h9.478l.055-2.893h-.525c0 1.604-.846 2.018-2.164 1.97H3.405c-.976 0-1.242-.052-1.242-.994v-3.923h2.388c1.358 0 1.495.869 1.604 1.509h.567v-4.137h-.567c0 1.059-.429 1.723-1.604 1.723l-2.388-.036v-4.379c0-1.1.266-1.149 1.242-1.149h2.177c1.14 0 1.658.403 1.774 1.93h.526l-.028-2.847H0Z" style="fill:#1c63b7;fill-opacity:1;fill-rule:nonzero;stroke:none" transform="translate(519.185 70.679)"/><path d="M0 0h2.887c3.862 0 7.151.397 7.192 6.64 0 5.558-2.743 6.587-6.475 6.587h-5.433l-.027-.396c1.815-.319 1.877-.319 1.877-2.261zm2.149 11.251c0 .947.498 1.041 1.659 1.041 3.699 0 4.094-2.249 4.094-5.698C7.902 2.593 7.11.906 3.48.906c-1.331 0-1.331.556-1.331 1.308z" style="fill:#1c63b7;fill-opacity:1;fill-rule:nonzero;stroke:none" transform="translate(413.194 60.108)"/><path d="M0 0c.034 1.646-.027 1.652-1.944 1.913v.443l4.141.396-.176-13.445-2.165.024z" style="fill:#1c63b7;fill-opacity:1;fill-rule:nonzero;stroke:none" transform="translate(427.129 70.583)"/><path d="M0 0h2.129v6.143h1.228L6.831 0H9.09L5.467 6.481c1.569.218 3.05 1 3.05 3.231 0 3.515-4.081 3.515-5.569 3.515h-4.824v-.396C-.096 12.512 0 12.512 0 10.57Zm2.15 10.529c0 1.427 0 1.775 1.303 1.775 1.686 0 2.88-.55 2.88-2.699 0-2.201-1.802-2.574-3.044-2.574h-1.16z" style="fill:#1c63b7;fill-opacity:1;fill-rule:nonzero;stroke:none" transform="translate(531.174 60.108)"/><path d="M0 0v15.458h-5.098V0h-3.617v15.458h-7.321v-.762c1.487-.201 2.197-1.404 2.197-2.404V0h-9.185l1.931-3.171h34.14V0Z" style="fill:#1c63b7;fill-opacity:1;fill-rule:nonzero;stroke:none" transform="translate(456.233 92.809)"/><path d="M0 0c0-3.474 0-7.9-.137-11.144-.184-3.272-.682-8.361-1.146-11.019h2.784c1.385 3.303 2.04 6.191 2.961 10.156C5.37-7.994 5.909-2.881 6.147.93c0 .58-.046 1.124-.238 1.532-.253.426-.553.685-1.153.728h-27.467L-20.596 0Z" style="fill:#1c63b7;fill-opacity:1;fill-rule:nonzero;stroke:none" transform="translate(459.81 120.434)"/><path d="M0 0c-.648 1.8-.859 1.8-2.437 2.136v.422h3.911L5.397-8.421h.035L9.239 2.558h1.311L5.671-10.923h-1.74z" style="fill:#1c63b7;fill-opacity:1;fill-rule:nonzero;stroke:none" transform="translate(367.106 70.696)"/><path d="m0 0-1.788 2.615c-.655.947-1.474 1.491-2.388 1.633-.874.112-1.625-.077-2.362-.626-.784-.599-1.316-1.333-1.399-2.184-.19-.935.083-1.889.778-2.907l1.768-2.568.218.161c-.15.242-.218.431-.245.556-.035.182.068.403.252.544L-1.201.125c.245.165.403.182.607.093.061-.041.232-.189.389-.396zm-2.136 1.52-3.937-2.97c-.171-.096-.287-.185-.403-.185-.109 0-.232.101-.396.362-.423.65-.423 1.326.048 2.077.286.486.668.946 1.262 1.373.935.687 1.679 1 2.245.942.56-.096.997-.332 1.324-.842.137-.177.205-.319.137-.443 0-.084-.137-.201-.28-.314" style="fill:#1c63b7;fill-opacity:1;fill-rule:nonzero;stroke:none" transform="translate(62.395 66.335)"/><path d="m0 0-.908 1.858-.259-.161c.15-.182.191-.347.232-.443 0-.23-.041-.361-.15-.415-.136-.065-.3-.1-.566-.13a11 11 0 0 0-.84-.136l-.982 2.023.43.523c.095.124.156.201.218.301.15.101.211.183.294.224.122.088.3.088.382.036.026-.077.177-.26.314-.561l.225.124-1.42 2.923-.232-.106a.63.63 0 0 0 0-.622c-.068-.154-.327-.526-.703-1.042l-3.63-4.427.109-.235 5.8.496c.465.036.778.036.901.018.246-.018.437-.159.574-.36zm-2.887.556-2.436-.29-.007.113 1.563 1.922z" style="fill:#1c63b7;fill-opacity:1;fill-rule:nonzero;stroke:none" transform="translate(58.361 72.23)"/><path d="m0 0-.252-.083c-.055.254-.144.491-.28.551-.164.136-.375.153-.641.07L-5.65-1.066c-.307-.101-.43-.243-.457-.455 0-.118.027-.344.095-.626l-.273-.072-1.836 5.544 1.932.657.082-.207c-.56-.373-.928-.68-1.058-1.071-.116-.378-.075-.952.211-1.721.062-.302.158-.51.287-.534.048-.041.144-.041.362 0l2.149.776c-.17.556-.395.9-.635 1.006-.279.142-.668.159-1.221.059l-.068.261 3.071 1.076.095-.225c-.525-.254-.825-.537-.982-.811-.157-.301-.109-.745.075-1.272l2.245.806c.211.088.307.165.321.272.082.154 0 .372-.089.703-.198.628-.478 1.095-.785 1.385q-.614.462-1.679.592l-.088.255 2.074.301z" style="fill:#1c63b7;fill-opacity:1;fill-rule:nonzero;stroke:none" transform="translate(55.236 78.656)"/><path d="M0 0c-.806.52-1.317 1.307-1.508 2.354a8 8 0 0 0 0 1.29c.095.467.143.727.095.827 0 .112-.047.178-.129.214a.5.5 0 0 1-.342.112l-.068.295 2.245.391.034-.224c-.423-.332-.771-.663-1.003-.977-.436-.572-.566-1.147-.498-1.739.136-.644.45-1.064 1.03-1.266.594-.184 1.406-.218 2.375-.018.832.16 1.495.409 2.068.841.6.367.819.942.703 1.776-.103.406-.219.66-.41.809-.102.04-.293.071-.484.04l-.997-.201c-.299-.053-.464-.177-.573-.413-.02-.106 0-.355.075-.751l-.238-.011-.601 3.419.225.035c.062-.343.198-.515.314-.657.123-.064.396-.112.696-.023l1.262.213c.219-.19.403-.508.567-1.007.26-.455.437-.982.505-1.619.171-1.124 0-2.048-.56-2.847C4.238.112 3.521-.35 2.58-.499 1.624-.724.75-.499 0 0" style="fill:#1c63b7;fill-opacity:1;fill-rule:nonzero;stroke:none" transform="translate(47.355 85.054)"/><path d="M0 0h.226C.253-.396.321-.652.43-.787c.13-.124.335-.22.737-.208l3.324.108c.464 0 .846.082 1.112.201.505.259.737.686.737 1.319-.021.752-.335 1.277-.867 1.522-.327.201-.778.218-1.317.218l-2.989-.096c-.355 0-.607-.058-.737-.206-.109-.136-.204-.396-.204-.775l-.273-.018-.062 2.243.273.029c.062-.343.157-.556.239-.645.089-.106.314-.148.635-.148l3.084.066c.833 0 1.508-.16 1.945-.58.518-.409.716-1.047.757-1.924.028-1.194-.293-1.994-.969-2.438-.348-.283-.791-.379-1.351-.379l-3.31-.093c-.382 0-.586-.048-.669-.156-.095-.134-.156-.348-.204-.71H.096Z" style="fill:#1c63b7;fill-opacity:1;fill-rule:nonzero;stroke:none" transform="translate(45.177 95.846)"/><path d="M0 0c.266.362.348.609.348.645 0 .142 0 .237-.027.378-.116.06-.212.161-.3.173l.061.254 2.231-.427-.068-.294C1.72.609 1.29.438.942.218A2.04 2.04 0 0 1-.13-1.189c-.157-.64.034-1.172.526-1.58.512-.414 1.242-.716 2.156-.877.71-.189 1.303-.242 1.726-.141.915.141 1.468.604 1.645 1.426.069.521.048.994-.15 1.52-.123.256-.334.64-.58 1.059l.293.22a4.1 4.1 0 0 0 .703-1.224c.273-.581.287-1.203.144-1.841-.198-.977-.628-1.757-1.331-2.291-.751-.59-1.692-.774-2.757-.533-1.016.197-1.836.741-2.3 1.58-.484.788-.614 1.683-.423 2.67C-.382-.805-.239-.396 0 0" style="fill:#1c63b7;fill-opacity:1;fill-rule:nonzero;stroke:none" transform="translate(46.706 110.172)"/><path d="m0 0 .737 1.965-.273.089C.375 1.822.307 1.68.259 1.556c-.116-.13-.273-.219-.403-.13-.129.035-.252.13-.477.362-.089.034-.3.235-.642.496l.812 2.124.628.048c.13.023.253.023.369.023.122-.023.266-.071.361-.088.116-.036.212-.124.212-.242.041-.101-.041-.333-.096-.64l.185-.065L2.34 6.51l-.232.058c-.088-.19-.211-.348-.416-.413-.225 0-.614-.079-1.262-.096l-5.569-.266-.122-.261 4.299-4.071c.327-.313.566-.539.641-.692.123-.189.177-.427.069-.651Zm-1.556 2.579-1.829 1.688.054.088 2.41.053z" style="fill:#1c63b7;fill-opacity:1;fill-rule:nonzero;stroke:none" transform="translate(53.517 110.853)"/><path d="m0 0 2.791 5.348 1.747-.969-.13-.28c-.696.28-1.228.28-1.664 0-.24-.118-.478-.436-.724-.892L6.592.691c.334-.183.553-.242.737-.183.15.089.335.249.505.645l.239-.177-1.699-3.143-.178.113c.178.355.273.609.178.805 0 .183-.178.343-.519.501L1.303 1.81C1.064 1.348.969.976.969.691c0-.544.334-1.024.873-1.439l-.095-.253Z" style="fill:#1c63b7;fill-opacity:1;fill-rule:nonzero;stroke:none" transform="translate(50.016 120.606)"/><path d="M0 0c.144.208.239.426.28.534.02.182-.109.391-.314.597l-3.815 2.965c-.225.141-.436.177-.607.124-.095-.048-.232-.184-.464-.378l-.205.154 2.027 2.739.184-.177c-.129-.214-.225-.391-.273-.551-.013-.255.089-.384.321-.592l1.597-1.29L.144 6.102l-1.645 1.261c-.246.146-.437.225-.607.137-.089-.079-.28-.197-.457-.434l-.192.178 1.993 2.752.164-.168c-.13-.247-.192-.432-.246-.556-.034-.194.116-.372.321-.561l3.808-2.976c.238-.16.443-.177.634-.1q.213.087.416.396l.212-.125L2.58 3.089l-.226.154c.178.249.246.45.26.599.027.194-.082.378-.301.573L.492 5.824-.88 3.871.915 2.452c.231-.178.491-.209.662-.101.102.053.258.182.436.42l.178-.185-2-2.721z" style="fill:#1c63b7;fill-opacity:1;fill-rule:nonzero;stroke:none" transform="translate(58.614 123.28)"/><path d="M0 0c-.764-.763-1.119-1.597-1.119-2.575 0-.992.327-1.81 1.071-2.579.655-.696 1.42-1.075 2.327-1.141.983-.017 1.781.344 2.552 1.076.676.705 1.092 1.597 1.092 2.539.069.941-.307 1.822-1.003 2.598-.737.739-1.59 1.141-2.498 1.141A3.2 3.2 0 0 1 0 0m4.606-4.941c-.546-.555-1.174-.573-1.985-.153-.437.247-.935.661-1.475 1.242A6.4 6.4 0 0 0 .034-2.361c-.382.9-.334 1.574.212 2.125.361.396.818.504 1.44.296.593-.178 1.242-.64 1.958-1.391a6.8 6.8 0 0 0 1.119-1.556c.444-.834.362-1.546-.157-2.054" style="fill:#1c63b7;fill-opacity:1;fill-rule:nonzero;stroke:none" transform="translate(61.193 136.996)"/><path d="M0 0c.225.167.307.326.389.421a.67.67 0 0 1-.103.658l-2.77 4.017c-.191.255-.355.362-.553.338-.136 0-.307-.12-.546-.285l-.143.225 2.791 2.083.109-.218c-.293-.266-.498-.444-.532-.628-.062-.173 0-.426.239-.74L1.61 1.954c.096-.166.253-.272.369-.262.164 0 .361.108.614.309.47.384.798.787.976 1.225.178.503.157 1.149-.014 1.923l.198.165.935-2.106L.17-.218Z" style="fill:#1c63b7;fill-opacity:1;fill-rule:nonzero;stroke:none" transform="translate(68.55 134.913)"/><path d="M0 0c.252.135.334.283.45.36.143.225.143.438-.034.669l-2.327 4.35c-.13.249-.294.391-.505.355-.137 0-.334-.065-.601-.177l-.15.213 3.01 1.774.13-.247c-.273-.161-.444-.315-.505-.398-.116-.224-.082-.448.061-.71l2.327-4.295c.109-.232.28-.373.457-.373.178 0 .382.035.642.241l.156-.241L.109-.213Z" style="fill:#1c63b7;fill-opacity:1;fill-rule:nonzero;stroke:none" transform="translate(73.832 138.743)"/><path d="M0 0c.423 0 .669.041.744.041a.62.62 0 0 1 .232.266v.326l.218.13.881-2.189-.205-.089c-.41.372-.812.662-1.112.823-.669.318-1.195.366-1.767.129-.588-.249-.908-.71-.976-1.374 0-.637.15-1.443.532-2.365.273-.657.559-1.201.887-1.552.628-.668 1.31-.905 2.074-.55.451.22.84.55 1.099 1.001q.279.354.525 1.082l.328-.094c-.171-.585-.348-1-.573-1.309a2.7 2.7 0 0 0-1.345-1.177c-.907-.408-1.753-.462-2.565-.16-.962.302-1.577.971-2.02 2.025-.396.976-.451 1.987-.048 2.881.375.858.948 1.486 1.836 1.858C-.866-.131-.437-.031 0 0" style="fill:#1c63b7;fill-opacity:1;fill-rule:nonzero;stroke:none" transform="translate(79.126 148.714)"/><path d="m0 0 .021-.26c-.355-.035-.587-.155-.696-.296-.13-.154-.151-.384-.075-.763l.545-3.368c.082-.539.205-.905.335-1.184.3-.461.751-.645 1.371-.58.737.161 1.188.527 1.331 1.137q.155.514 0 1.385L2.348-.875c-.048.378-.151.58-.294.745-.164.071-.409.13-.791.071L1.235.22l2.109.372.068-.261C3.057.22 2.9.119 2.832 0c-.088-.113-.109-.295-.075-.633l.492-3.224c.163-.83.081-1.575-.26-2.067-.3-.551-.907-.893-1.726-1.054-1.133-.17-1.938.019-2.471.646-.28.325-.443.781-.552 1.36l-.512 3.375c-.028.367-.157.602-.28.703-.095.054-.314.095-.669.095l-.068.243z" style="fill:#1c63b7;fill-opacity:1;fill-rule:nonzero;stroke:none" transform="translate(89.478 151.75)"/><path d="M0 0c.32.017.58.094.675.214.123.118.184.343.123.585L.75 5.628c-.307.36-.463.58-.559.65a.56.56 0 0 1-.259.089l-.041.237 2.067.048 3.419-4.19h.068l-.068 2.965c0 .384-.041.616-.17.781-.076.118-.369.219-.717.267v.213l2.115.041v-.213c-.32-.089-.539-.149-.621-.238-.109-.1-.143-.312-.143-.65l.075-5.97-.246-.024L1.242 5.03h-.048L1.242.995c0-.297.075-.516.156-.663.11-.178.39-.279.82-.315v-.254L0-.272Z" style="fill:#1c63b7;fill-opacity:1;fill-rule:nonzero;stroke:none" transform="translate(94.133 145.826)"/><path d="M0 0c.287-.017.492-.017.601.036.211.053.32.261.32.587l.478 4.923c.035.302-.034.48-.225.615-.109.076-.307.131-.594.148l.021.278 3.391-.35v-.235c-.314 0-.525 0-.648-.031-.177-.123-.286-.302-.341-.585L2.553.462c0-.29.033-.479.197-.58.096-.136.348-.184.635-.236v-.255L-.02-.29Z" style="fill:#1c63b7;fill-opacity:1;fill-rule:nonzero;stroke:none" transform="translate(101.14 145.843)"/><path d="m0 0-.034-.254c-.383.076-.587.106-.71.076-.136-.023-.164-.1-.198-.26-.014-.101-.014-.101-.014-.166 0-.041 0-.077.014-.142l.737-4.024 1.938 3.084c.061.065.096.147.13.2.061.119.109.22.123.285a.53.53 0 0 1-.062.426c-.13.053-.334.13-.682.236l.109.261 2.02-.468-.075-.283c-.239.041-.437 0-.567-.048-.143-.112-.293-.29-.463-.544l-3.371-5.374-.267.072L-2.614-.42a1.6 1.6 0 0 1-.204.58c-.048.166-.246.237-.43.338l.034.242z" style="fill:#1c63b7;fill-opacity:1;fill-rule:nonzero;stroke:none" transform="translate(109.418 151.294)"/><path d="M0 0a.87.87 0 0 0 .607.07.72.72 0 0 0 .471-.437.76.76 0 0 0 .062-.616.9.9 0 0 0-.369-.551.9.9 0 0 0-.648-.024c-.191.024-.375.196-.457.386-.144.189-.144.415-.109.669.109.189.218.39.443.503" style="fill:#1c63b7;fill-opacity:1;fill-rule:nonzero;stroke:none" transform="translate(111.281 145.105)"/><path d="M0 0c.334-.148.587-.225.757-.148.164.053.315.232.416.467l2.15 4.267c.123.261.164.462.082.587-.082.177-.266.295-.559.479l.13.236 2.197-1.159-.382-5.095.054-.077L8.66 2.865l2.163-1.184-.116-.262c-.301.137-.519.202-.676.185-.129-.077-.286-.202-.471-.573L7.561-3.013c-.177-.295-.205-.556-.177-.721.048-.154.224-.319.532-.479l-.109-.243L4.9-2.881l.129.189c.26-.131.464-.155.649-.155.163 0 .307.155.484.414l2.156 4.469h-.061L3.501-2.136l-.287.142.498 6.349h-.054L1.624.266c-.13-.266-.211-.551-.177-.733.061-.173.252-.398.6-.616l-.089-.226L-.095-.225z" style="fill:#1c63b7;fill-opacity:1;fill-rule:nonzero;stroke:none" transform="translate(115.772 142.595)"/><path d="m0 0 .164.189c.177-.141.389-.26.539-.29.171-.006.348.101.532.29l2.832 3.989c.184.242.246.468.143.64-.033.146-.17.259-.409.49l.157.22 4.477-3.574L7.261.326l-.143.159c.245.592.341 1.107.245 1.469-.123.396-.457.846-1.071 1.325-.259.178-.396.255-.505.255-.123 0-.245-.077-.328-.243L4.067 1.415c.472-.351.819-.504 1.092-.444.3.048.683.259 1.03.65l.219-.147-1.931-2.752-.226.195c.288.474.396.899.362 1.237-.034.297-.273.639-.73.999L2.437-.834c-.083-.16-.151-.331-.083-.444.014-.131.158-.302.424-.534.484-.355 1.003-.584 1.432-.645.458-.064 1.065.132 1.686.48l.218-.177-1.562-1.444Z" style="fill:#1c63b7;fill-opacity:1;fill-rule:nonzero;stroke:none" transform="translate(123.7 137.95)"/><path d="m0 0 2.225-2.276c.75-.822 1.658-1.183 2.62-1.166.832 0 1.549.344 2.224.977.676.756 1.044 1.518 1.044 2.412 0 .942-.409 1.87-1.317 2.735L4.708 4.871 4.531 4.7c.177-.178.26-.362.314-.51.054-.159 0-.391-.178-.58L1.208.043C1.05-.153.853-.182.648-.135.498-.053.396.043.19.184Zm2.368-1.105L5.773 2.45c.164.143.272.232.272.232.199.024.349-.053.547-.232.539-.568.634-1.259.3-2.1-.205-.503-.559-1.04-1.051-1.527-.826-.846-1.563-1.306-2.068-1.319-.539-.041-1.023.137-1.474.585-.102.173-.163.272-.163.396 0 .113.089.297.232.41" style="fill:#1c63b7;fill-opacity:1;fill-rule:nonzero;stroke:none" transform="translate(128.765 133.966)"/><path d="M0 0c.17-.237.307-.379.45-.419.192-.101.396-.055.621.141l3.761 3.083c.197.158.299.389.266.607-.035.125-.13.302-.301.534l.171.158 2.143-2.755-.178-.184c-.246.237-.375.386-.484.462-.219.082-.424.041-.621-.16L2.074-1.599c-.198-.165-.334-.342-.286-.544.034-.177.136-.426.3-.657l-.164-.16L-.205-.172z" style="fill:#1c63b7;fill-opacity:1;fill-rule:nonzero;stroke:none" transform="translate(133.869 128.915)"/><path d="M0 0c.123-.479.177-.722.211-.781C.266-.863.32-.935.45-.935a.73.73 0 0 1 .382.036l.089-.266L-1.01-2.42l-.103.249c.28.491.512.917.642 1.272.17.722.122 1.314-.178 1.805-.361.604-.859.858-1.467.781-.614-.076-1.323-.385-2.142-.922-.615-.35-1.079-.741-1.351-1.127-.58-.738-.656-1.484-.178-2.217.245-.444.6-.765 1.058-1.006.286-.119.641-.202 1.125-.32v-.409c-.586.107-1.023.201-1.33.385a3.2 3.2 0 0 0-1.365 1.242c-.491.841-.689 1.724-.546 2.623.184.97.703 1.768 1.563 2.373.949.591 1.856.745 2.77.514.874-.26 1.591-.769 2.054-1.615C-.253.858-.062.415 0 0" style="fill:#1c63b7;fill-opacity:1;fill-rule:nonzero;stroke:none" transform="translate(144.14 125.067)"/><path d="m0 0 .798-1.898.219.064c-.102.272-.123.408-.123.503-.034.243.021.367.15.413.089.072.307.096.566.12.123.012.396.012.792.052l.894-2.107-.478-.467c-.054-.112-.177-.189-.225-.295-.123-.101-.239-.165-.327-.177-.103-.077-.26-.077-.321 0-.116.076-.212.283-.335.556l-.232-.096 1.263-3.006.232.106a.84.84 0 0 0 0 .575c.102.201.396.527.839.976l3.87 4.214-.144.26-5.793-.119c-.43-.012-.73-.012-.881.043A.54.54 0 0 0 .246.12Zm2.818-.733 2.457.083.048-.083-1.74-1.782z" style="fill:#1c63b7;fill-opacity:1;fill-rule:nonzero;stroke:none" transform="translate(139.696 119.64)"/><path d="M0 0c.082-.254.157-.419.232-.527.123-.178.375-.189.635-.124L5.459.645c.308.072.437.201.464.415.041.112.041.325-.027.604l.246.081.914-3.437-.266-.077c-.143.425-.232.674-.341.751-.164.107-.41.107-.778 0L1.187-2.243a.56.56 0 0 1-.368-.302c-.021-.125 0-.343.096-.705.129-.58.396-1.064.743-1.383.355-.333.942-.522 1.74-.616l.062-.29-2.231-.177L-.252-.077z" style="fill:#1c63b7;fill-opacity:1;fill-rule:nonzero;stroke:none" transform="translate(142.671 113.06)"/><path d="M0 0c-.143-.449-.17-.686-.17-.75 0-.113.027-.221.17-.291.103-.047.191-.125.293-.125l.014-.325-2.286-.118-.013.283c.484.255.887.556 1.139.794.512.532.71 1.094.683 1.675 0 .674-.335 1.153-.901 1.372-.58.308-1.345.361-2.327.344-.696-.036-1.263-.155-1.706-.344-.819-.367-1.229-.981-1.146-1.87 0-.491.184-.976.477-1.415.17-.225.43-.52.833-.839l-.26-.321c-.437.379-.778.7-.962 1.007-.375.496-.58 1.077-.621 1.757-.021.983.205 1.848.764 2.569.553.782 1.406 1.225 2.464 1.243 1.092.052 1.951-.214 2.675-.895.634-.649.989-1.496 1.058-2.455A4 4 0 0 0 0 0" style="fill:#1c63b7;fill-opacity:1;fill-rule:nonzero;stroke:none" transform="translate(151.352 98.751)"/><path d="m0 0 .238-.029c-.033-.29 0-.503.055-.604.082-.225.28-.319.581-.343l4.708-.415c.327-.04.512.013.6.221.089.1.137.3.171.597l.252-.041-.464-5.837-1.999.161v.285c.662.088 1.126.259 1.351.52.287.307.45.822.526 1.669.026.314.026.527-.076.604-.02.081-.143.124-.327.124l-2.266.224c-.041-.574 0-.976.164-1.201.239-.19.573-.432 1.112-.598v-.225l-3.302.285.027.278c.58 0 .969.142 1.214.314.253.219.355.59.431 1.17l-2.382.22a.42.42 0 0 1-.409-.119c-.082-.124-.144-.348-.178-.698-.048-.627.034-1.165.239-1.591.218-.415.641-.858 1.29-1.22l-.028-.278-2.013.623z" style="fill:#1c63b7;fill-opacity:1;fill-rule:nonzero;stroke:none" transform="translate(144.924 96.23)"/><path d="M0 0c-.062-.396-.062-.619.041-.75.096-.171.273-.255.539-.314l4.511-1.089c.395.19.635.331.73.415.069.035.109.136.137.242l.266-.089-.498-2.059L.928-6.07v-.06l2.86-.662c.3-.1.559-.1.723 0 .177.101.287.32.403.662l.252-.064-.478-2.095-.252.012c.027.319 0 .585-.061.686-.028.136-.239.232-.512.313l-5.61 1.362v.278L4.375-2.52l.027.053-3.74.925c-.348.065-.525.065-.662.046-.211-.106-.409-.367-.512-.77l-.238.06.512 2.235z" style="fill:#1c63b7;fill-opacity:1;fill-rule:nonzero;stroke:none" transform="translate(144.61 89.56)"/><path d="m0 0-2.184-5.662-1.815.715.096.301c.695-.194 1.228-.117 1.637.173.199.206.41.539.587 1.007l-4.824 1.951c-.321.156-.56.196-.73.113-.164-.094-.28-.319-.423-.698l-.219.094 1.242 3.391.225-.088c-.143-.384-.197-.628-.095-.835.061-.153.252-.342.607-.462l4.77-1.939c.185.443.266.846.211 1.093C-.969-.271-1.324.161-1.958.462l.102.29z" style="fill:#1c63b7;fill-opacity:1;fill-rule:nonzero;stroke:none" transform="translate(148.922 79.975)"/><path d="m0 0 .191-.113C.054-.403 0-.575 0-.746c0-.189.136-.398.382-.491l4.149-2.474c.266-.136.478-.136.628-.042.136.107.218.266.395.491l.219-.101-2.75-5.124-1.74.994.095.23c.622-.23 1.133-.23 1.481-.088.328.143.703.575 1.092 1.279.136.278.198.456.164.545 0 .129-.075.254-.253.342L1.897-4.048c-.287-.497-.355-.9-.328-1.189.11-.29.383-.588.812-.954l-.13-.238-2.865 1.683.136.218c.519-.218.921-.295 1.242-.218.294.077.58.384.805.834L-.43-2.663c-.212.1-.409.142-.478.077-.102-.077-.273-.243-.423-.568-.314-.557-.45-1.055-.45-1.539.027-.48.232-1.019.696-1.652l-.13-.242-1.631 1.414z" style="fill:#1c63b7;fill-opacity:1;fill-rule:nonzero;stroke:none" transform="translate(140.42 76.408)"/><path d="m0 0-2.006-2.734.197-.13c.212.283.403.42.553.42.185.028.369-.084.676-.29L.935-3.971l-.164-.195-3.644.254-1.215-1.639.198-.178c.075.101.075.142.143.178a.8.8 0 0 0 .239.024l3.338-.22c-.171-.284-.219-.645-.171-1 0-.508.205-.947.627-1.297.594-.436 1.229-.436 1.898.043.348.247.737.65 1.139 1.194l1.931 2.61-.205.137c-.238-.273-.375-.396-.477-.427-.171-.029-.437.077-.737.321L.402-1.414c-.32.211-.464.396-.464.602 0 .155.062.35.26.652zm1.201-4.166 2.006-1.581c.096-.077.116-.183.178-.284 0-.141-.082-.284-.253-.479-.32-.42-.641-.556-1.071-.462-.239 0-.512.165-.819.397-.471.403-.71.763-.655 1.106 0 .321.211.758.614 1.303" style="fill:#1c63b7;fill-opacity:1;fill-rule:nonzero;stroke:none" transform="translate(137.288 70.614)"/><path d="M0 0c-.13 0-.226-.019-.273-.053-.041-.048-.041-.089-.041-.208v-1.467c.314 0 .614.041.751.166.143.101.225.337.225.68 0 .261-.014.403-.082.539A.6.6 0 0 1 0 0" style="fill:#1c63b7;fill-opacity:1;fill-rule:nonzero;stroke:none" transform="translate(112.019 76.093)"/><path d="M0 0a.7.7 0 0 1-.293-.053c-.034-.048-.034-.089-.034-.208v-1.467c.327 0 .593.041.75.166.13.101.246.337.246.68 0 .261-.055.403-.116.539C.471-.131.266 0 0 0" style="fill:#1c63b7;fill-opacity:1;fill-rule:nonzero;stroke:none" transform="translate(85.111 76.093)"/><path d="m0 0-.43-1.35H.587L.062 0Z" style="fill:#1c63b7;fill-opacity:1;fill-rule:nonzero;stroke:none" transform="translate(79.823 75.07)"/><path d="m0 0-.498-1.35H.601L.062 0Z" style="fill:#1c63b7;fill-opacity:1;fill-rule:nonzero;stroke:none" transform="translate(68.454 75.07)"/><path d="M0 0c-.143 0-.252-.019-.287-.053-.027-.048-.061-.089-.061-.208v-1.467c.369 0 .635.041.798.166.123.101.185.337.185.68 0 .261-.007.403-.075.539C.464-.131.287 0 0 0" style="fill:#1c63b7;fill-opacity:1;fill-rule:nonzero;stroke:none" transform="translate(122.452 76.093)"/><path d="M0 0v.136c.17 0 .32.046.354.065.11.094.137.225.137.36v2.788c0 .165-.027.284-.137.366-.034.019-.184.019-.354.06v.113h3.248V2.74H3.07c-.033.373-.176.651-.334.774-.191.132-.491.22-.934.22-.151 0-.274-.019-.328-.088-.062-.013-.102-.054-.102-.202V2.112c.334 0 .559.059.695.16.117.142.205.331.226.681h.136v-1.93h-.136c-.021.302-.109.544-.226.681-.136.112-.361.218-.695.218V.496c0-.105.075-.201.156-.235.028-.06.151-.079.335-.079.382 0 .635.079.873.244.239.135.451.36.621.763h.137L3.275 0Zm-.239 0h-1.147l-1.146 1.816h-.143V.686c0-.214.013-.391.102-.425.075-.079.205-.125.41-.125V0h-1.931v.136c.211 0 .327.046.388.125.109.034.158.211.158.425v2.55c0 .208-.049.367-.158.41-.061.069-.177.088-.388.129v.113h1.815c.362 0 .669 0 .948-.096.43-.159.655-.443.655-.887 0-.319-.143-.532-.355-.734-.109-.141-.3-.218-.484-.249L-.492.261A.5.5 0 0 1-.417.182C-.334.136-.28.136-.239.136ZM-4.36 3.775c-.178-.041-.273-.041-.328-.06a.42.42 0 0 1-.198-.366V.561c0-.135.075-.266.143-.312.076-.067.205-.113.383-.113V0h-1.925v.136c.137 0 .266 0 .327.065.103.06.178.201.178.36v2.788a.45.45 0 0 1-.178.366c-.061.019-.19.019-.327.06v.113h1.925zm-2.239 0c-.116-.041-.198-.06-.314-.142a.7.7 0 0 1-.143-.342L-8.373-.125h-.13l-1.385 3.474c-.109.124-.143.254-.184.284-.096.082-.184.101-.307.142v.113h1.856v-.113c-.205-.041-.342-.041-.396-.06-.048-.034-.075-.082-.075-.201v-.07c0-.031 0-.031.027-.095l.894-2.1.703 1.941a.4.4 0 0 1 .014.113c.047.11.061.141.061.17 0 .13-.014.173-.109.242-.068.019-.157.019-.362.06v.113h1.167zM-10.68 0h-1.105l-1.16 1.816h-.137V.686c0-.214.041-.391.109-.425.028-.079.151-.125.355-.125V0h-1.876v.136c.211 0 .327.046.389.125.061.034.109.211.109.425v2.55c0 .208-.048.367-.109.41-.062.069-.178.088-.389.129v.113h1.808c.341 0 .648 0 .901-.096.443-.159.662-.443.662-.887a.9.9 0 0 0-.328-.734.95.95 0 0 0-.477-.249l1.051-1.661c0-.06.061-.079.061-.079.068-.046.102-.046.136-.046zm-4.347 0h-3.234v.136c.143 0 .266.046.3.065.13.094.178.225.178.36v2.788c0 .165-.048.284-.178.366-.034.019-.157.019-.3.06v.113h3.214V2.74h-.178c-.034.373-.122.651-.299.774-.212.132-.478.22-.99.22-.15 0-.232-.019-.307-.088-.062-.013-.062-.054-.062-.202V2.112c.307 0 .526.059.655.16.116.142.226.331.26.681h.143v-1.93h-.143c-.034.302-.095.544-.26.681-.129.112-.348.218-.655.218V.496c0-.105 0-.201.082-.235.055-.06.177-.079.355-.079.396 0 .669.079.922.244.191.135.416.36.614.763h.136zm-3.985.295c-.225-.254-.621-.367-1.064-.367-.123 0-.225.019-.376.031-.075.041-.184.041-.313.082l-.089.06h-.062c-.068 0-.068.017-.068.017-.082 0-.088-.017-.109-.065-.034-.041-.034-.053-.034-.125h-.191v1.433h.191c.055-.467.184-.752.396-.935.204-.225.396-.325.682-.325.239 0 .416.035.526.194.068.148.149.285.149.445 0 .154-.081.283-.149.449-.11.031-.233.136-.451.213l-.361.23c-.321.184-.608.333-.731.539-.177.161-.205.386-.205.652 0 .29.083.568.267.78.17.285.477.368.88.368.198 0 .395-.012.601-.083.184-.053.286-.096.286-.096.095 0 .136.043.136.043.042.053.042.101.089.136h.157V2.74h-.136c-.11.278-.212.551-.423.733-.171.242-.396.362-.662.362a.52.52 0 0 1-.403-.202.42.42 0 0 1-.177-.378c0-.19.034-.302.129-.403.075-.112.328-.249.669-.426l.403-.178c.17-.124.354-.218.464-.326.136-.266.293-.52.293-.798 0-.283-.157-.544-.314-.829m-6.544 20.6-1.433-27.209-1.365 26.835-4.074-9.531 3.754 11.389-14.535-13.81 13.122 14.917-10.557-4.237 9.329 4.729-26.143 1.443 25.781 1.45-9.172 4.243 10.932-3.888-13.292 15.12 14.33-13.659-4.06 10.955 4.572-9.569 1.378 38.092 1.488-37.732 3.992 9.463-3.747-11.397 14.549 13.847-13.102-14.943 10.563 4.238-9.376-4.758 25.659-1.462-25.297-1.408 9.219-4.273-10.986 3.912 13.32-15.083-14.337 13.633 4.005-11.03zM-33.09 0h-3.255v.136c.13 0 .253.046.307.065a.47.47 0 0 1 .184.36v2.788a.42.42 0 0 1-.184.366c-.054.019-.177.019-.307.06v.113h3.228V2.74h-.13c-.088.373-.238.651-.361.774-.178.132-.512.22-.955.22-.191 0-.273-.019-.301-.088-.082-.013-.082-.054-.082-.202V2.112c.3 0 .546.059.621.16.11.142.205.331.301.681h.136v-1.93h-.136c-.062.302-.137.544-.273.681-.103.112-.349.218-.649.218V.496c0-.105.014-.201.082-.235.028-.06.151-.079.362-.079.382 0 .648.079.894.244.211.135.423.36.621.763h.123zm-4.497 0h-1.084l-1.161 1.816h-.177V.686c0-.214.028-.391.102-.425.075-.079.171-.125.376-.125V0h-1.884v.136c.232 0 .314.046.389.125.075.034.096.211.096.425v2.55c0 .208-.055.367-.096.41-.075.069-.157.088-.389.129v.113h1.795c.389 0 .675 0 .949-.096.416-.159.654-.443.654-.887 0-.319-.109-.532-.347-.734a.9.9 0 0 0-.485-.249l1.037-1.661c.014-.06.082-.079.082-.079.062-.046.109-.046.109-.046zm-5.083 0h-1.795v.136c.171 0 .286 0 .368.065 0 0 .076.094.076.201 0 .024 0 .094-.076.207 0 .036 0 .1-.034.177l-.163.403h-1.256c-.028-.295-.089-.449-.13-.503a1 1 0 0 1-.068-.295c0-.096.068-.19.17-.209.028-.046.123-.046.273-.046V0h-1.119v.136c.096 0 .219.065.301.159.04.131.109.285.238.527l1.222 3.149h.15L-43.25.939c.143-.33.218-.513.259-.644a.38.38 0 0 1 .321-.159zm-5.043 3.775c-.198-.041-.308-.06-.362-.142-.095-.03-.136-.189-.136-.397V.686c0-.214.041-.391.136-.425.054-.079.164-.125.362-.125V0h-1.87v.136c.164 0 .341.046.375.113.075.046.137.177.137.331v2.833h-.062L-50.484 0h-.122l-1.407 3.349V.709c0-.158 0-.307.069-.414.068-.094.238-.159.444-.159V0h-1.243v.136c.191 0 .335.046.362.125.068.034.102.211.102.348v2.74c0 .148-.034.254-.102.297-.048.069-.171.088-.362.129v.113h1.386l1.105-2.668 1.119 2.668h1.42zM-54.032 0h-1.795v.136c.184 0 .327 0 .341.065.069 0 .082.094.082.201 0 .024 0 .094-.013.207 0 .036-.069.1-.083.177l-.129.403h-1.222a5 5 0 0 0-.191-.503c-.047-.125-.047-.26-.047-.295 0-.096.047-.19.136-.209.061-.046.143-.046.273-.046V0h-1.133v.136c.164 0 .252.065.355.159.034.131.075.285.225.527l1.188 3.149h.164l1.248-3.032c.123-.33.259-.513.307-.644.089-.113.164-.159.294-.159zm26.961 70.341S-60.638 42.257-64.084.472c0 0 37.013-17.977 73.856 0-3.453 41.785-36.843 69.869-36.843 69.869" style="fill:#1c63b7;fill-opacity:1;fill-rule:nonzero;stroke:none" transform="translate(124.766 72.36)"/><path d="M0 0c.792 0 1.399.64 1.399 1.413C1.399 2.23.792 2.87 0 2.87c-.757 0-1.406-.64-1.406-1.457C-1.406.64-.757 0 0 0" style="fill:#1c63b7;fill-opacity:1;fill-rule:nonzero;stroke:none" transform="translate(97.477 46.162)"/><path d="M0 0s-.874 6.729-8.66 5.923c0 0 1.154-6.901 8.66-5.923" style="fill:#1c63b7;fill-opacity:1;fill-rule:nonzero;stroke:none" transform="translate(71.86 54.671)"/><path d="M0 0s-4.415-.142-7.383-5.124c0 0 8.584-1.626 11.881 4.588 0 0-1.536 6.288-9.759 8.134 0 0 1.078-5.467 5.261-7.598" style="fill:#1c63b7;fill-opacity:1;fill-rule:nonzero;stroke:none" transform="translate(90.625 47.941)"/><path d="M0 0s-4.347.657-8.134-3.74c0 0 8.25-3.154 12.453 2.42 0 0-.457 6.481-8.27 9.794 0 0 .191-5.609 3.951-8.474" style="fill:#1c63b7;fill-opacity:1;fill-rule:nonzero;stroke:none" transform="translate(82.45 49.901)"/><path d="M0 0s-4.211 1.45-8.599-2.208c0 0 7.534-4.585 12.632.118 0 0 .641 6.481-6.497 11.132 0 0-.771-5.528 2.464-9.042" style="fill:#1c63b7;fill-opacity:1;fill-rule:nonzero;stroke:none" transform="translate(74.74 53.31)"/><path d="M0 0s.894 6.698 8.674 5.899c0 0-1.167-6.911-8.674-5.899" style="fill:#1c63b7;fill-opacity:1;fill-rule:nonzero;stroke:none" transform="translate(122.84 54.648)"/><path d="M0 0s4.422-.16 7.37-5.195c0 0-8.673-1.568-11.826 4.687 0 0 1.597 6.284 9.799 8.07C5.343 7.562 4.224 2.1 0 0" style="fill:#1c63b7;fill-opacity:1;fill-rule:nonzero;stroke:none" transform="translate(104.314 47.86)"/><path d="M0 0s4.381.611 8.121-3.814c0 0-8.264-3.073-12.447 2.524 0 0 .512 6.434 8.332 9.706 0 0-.212-5.563-4.006-8.416" style="fill:#1c63b7;fill-opacity:1;fill-rule:nonzero;stroke:none" transform="translate(112.598 49.87)"/><path d="M0 0s4.21 1.407 8.632-2.279c0 0-7.594-4.514-12.685.225 0 0-.546 6.462 6.633 11.067 0 0 .736-5.539-2.58-9.013" style="fill:#1c63b7;fill-opacity:1;fill-rule:nonzero;stroke:none" transform="translate(120.37 53.31)"/></g></svg>